<?xml version="1.0" encoding="utf-8"?>
<!-- Generator: Adobe Illustrator 17.0.0, SVG Export Plug-In . SVG Version: 6.00 Build 0)  -->
<!DOCTYPE svg PUBLIC "-//W3C//DTD SVG 1.1//EN" "http://www.w3.org/Graphics/SVG/1.1/DTD/svg11.dtd">
<svg version="1.1" xmlns="http://www.w3.org/2000/svg" xmlns:xlink="http://www.w3.org/1999/xlink" x="0px" y="0px" width="592px"
	 height="597.563px" viewBox="0 0 592 597.563" enable-background="new 0 0 592 597.563" xml:space="preserve">
<g id="Geometry" display="none">
	<path display="inline" fill="#FFFFFF" d="M244.944,476.676c-38.066-8.227-73.592-26.033-102.738-51.492
		c-30.057-26.254-52.665-60.186-65.38-98.125C36.924,207.989,102.528,78.256,223.069,37.86
		c39.746-13.319,82.229-15.719,122.856-6.938c38.066,8.227,73.591,26.033,102.738,51.492c30.057,26.254,52.665,60.186,65.379,98.125
		C553.944,299.607,488.34,429.341,367.8,469.738C328.054,483.057,285.571,485.456,244.944,476.676z M342.991,44.497
		c-38.188-8.253-78.13-5.995-115.509,6.533C114.203,88.992,49.275,212.262,86.744,324.07
		c24.055,71.781,86.329,122.863,161.134,139.03c38.187,8.253,78.13,5.994,115.509-6.533
		c113.279-37.963,174.955-159.809,137.486-271.616C476.817,113.171,417.796,60.665,342.991,44.497z"/>
</g>
<g id="Layer_3" display="none">
	<rect x="-52" y="-7" display="inline" fill="#231F20" width="927" height="741"/>
</g>
<g id="Background_sphere">
	<g opacity="0.05">
		<g>
			<g enable-background="new    ">
				<g enable-background="new    ">
					<defs>
						<path id="SVGID_1_" enable-background="new    " d="M62.549,252.815c-0.103-6.257,0.147-14.631,0.954-20.836
							c0.729-5.606,1.466-13.117,2.443-18.685c1.059-6.035,2.781-14.033,4.339-19.959c1.402-5.332,3.541-12.375,5.385-17.57
							c2.041-5.75,5.259-13.231,7.556-18.883c2.361-5.81,6.258-13.25,9.452-18.648c5.403-9.13,13.36-20.857,19.657-29.395
							c3.854-5.225,9.507-11.832,14.12-16.401c3.636-3.602,8.33-8.571,12.153-11.972c5.367-4.774,12.777-10.855,18.454-15.256
							c3.77-2.923,9.058-6.478,13.069-9.063c4.002-2.579,9.509-5.745,13.625-8.138c6.969-4.051,16.711-8.707,24.224-11.63
							c4.894-1.904,11.444-4.394,16.441-6.009c5.091-1.646,11.976-3.538,17.162-4.853c4.864-1.234,11.436-2.529,16.378-3.399
							c5.159-0.908,9.381-1.4,13.851-1.921c1.642-0.191,7.947-0.776,11.349-0.946c1.597-0.08,3.726-0.212,5.325-0.252
							c6.492-0.164,6.492-0.164,10.219-0.143c15.554,0.093,27.784,1.842,32.388,2.501c5.203,0.744,11.24,1.904,14.028,2.502
							c4.766,1.022,11.067,2.628,15.774,3.891c3.525,0.946,8.17,2.413,11.611,3.63c4.846,1.713,11.258,4.141,15.998,6.128
							c7.405,3.104,16.893,8.111,23.986,11.874c57.216,32.507,94.922,96.749,94.775,175.533
							c-0.231,124.311-94.6,237.743-210.786,253.368c116.186-15.624,210.555-129.057,210.786-253.368
							c0.146-78.784-37.559-143.026-94.775-175.533c5.553,3.242,12.973,7.591,18.132,11.428c3.884,2.889,9.175,6.597,12.923,9.659
							c4.717,3.853,11.027,9.009,15.276,13.374c3.611,3.709,8.584,8.505,12.033,12.365c4.01,4.489,9.172,10.647,12.81,15.442
							c3.213,4.235,7.314,10.028,10.181,14.505c3.218,5.026,7.345,11.845,10.085,17.147c3.716,7.191,9.333,18.057,15.054,34.88
							c3.574,10.508,6.881,24.99,9.012,35.883c1.183,6.049,2.009,14.248,2.514,20.39c0.471,5.726,0.547,13.395,0.736,19.137
							c0.23,6.987-0.345,16.331-1.186,23.271c-0.679,5.603-1.599,13.079-2.632,18.628c-1.121,6.02-2.924,13.993-4.541,19.899
							c-1.453,5.31-3.662,12.321-5.557,17.491c-2.101,5.731-5.388,13.185-7.751,18.813c-2.089,4.974-5.524,11.319-8.192,16.007
							c-3.072,5.398-7.6,12.34-10.923,17.588c-3.558,5.617-9.085,12.592-13.362,17.682c-6.592,7.846-15.991,17.848-23.701,24.599
							c-5.453,4.775-12.999,10.827-18.784,15.195c-3.782,2.855-9.104,6.278-13.078,8.859c-2.116,1.375-15.293,9.406-26.362,14.321
							c-5.242,2.328-12.283,5.331-17.664,7.315c-5.048,1.861-11.894,4.038-17.074,5.493c-10.261,2.883-19.073,4.613-24.659,5.556
							c-6.213,1.049-9.727,1.449-13.797,1.911c-2.396,0.272-8.217,0.789-11.349,0.946c-4.911,0.245-7.377,0.369-10.459,0.38
							c-1.525,0.005-3.559,0.027-5.084,0.015c-1.523-0.012-3.553-0.067-5.076-0.095c-1.535-0.029-3.581-0.117-5.113-0.207
							c-5.69-0.333-15.214-0.889-28.915-3.287c-25.55-4.471-44.475-12.442-50.694-15.062c-7.399-3.117-16.986-7.94-23.985-11.873
							c-6.433-3.615-14.843-8.793-20.723-13.252c-4.957-3.76-11.742-8.584-16.319-12.798c-3.756-3.458-8.905-7.921-12.505-11.541
							c-4.269-4.293-9.765-10.217-13.705-14.813c-6.889-8.036-14.893-19.719-20.741-28.541c-3.341-5.04-7.077-12.211-9.838-17.59
							c-2.728-5.315-6.173-12.528-8.193-18.149c-3.726-10.368-8.4-24.336-10.929-35.059c-2.322-9.846-3.956-23.283-5.069-33.338
							C62.653,266.242,62.643,258.56,62.549,252.815z"/>
					</defs>
					<clipPath id="SVGID_2_">
						<use xlink:href="#SVGID_1_"  overflow="visible"/>
					</clipPath>
					<g clip-path="url(#SVGID_2_)" enable-background="new    ">
						<path fill="#79869A" d="M62.549,252.815c0.195,11.833,0.651,39.544,10.603,70.307c10.907,33.717,22.664,50.982,34.034,67.679
							c10.884,15.983,30.989,35.716,40.725,43.247c14.561,11.262,18.021,13.938,33.396,22.985
							c4.48,2.636,14.348,8.009,30.098,14.376c40.566,16.397,90.043,20.657,132.353,11.395
							c17.949-3.929,72.572-15.887,121.885-67.051c17.768-18.435,29.1-36.405,34.274-45.475
							c12.828-22.491,16.863-35.38,22.971-54.891c3.512-11.22,5.493-26.891,7.173-38.527c0.818-5.666,0.832-13.333,1.141-19.05
							c0.259-4.795,0.491-18.494-2.933-42.098c-5.407-37.268-23.316-73.604-34.422-89.559c-3.495-5.022-7.911-11.913-11.812-16.626
							c-6.623-8.001-15.658-18.558-23.212-25.686c-18.094-17.074-32.961-26.653-46.332-34.46
							c57.216,32.507,94.922,96.749,94.775,175.533c-0.231,124.311-94.6,237.743-210.786,253.368
							c116.186-15.624,210.555-129.057,210.786-253.368c0.146-78.784-37.559-143.026-94.775-175.533
							c-14.585-7.736-18.05-9.574-30.099-14.376c-11.218-4.471-18.884-6.527-29.494-9.373c-2.517-0.675-25.424-6.603-54.192-6.775
							c-24.917-0.149-44.816,3.54-57.122,6.66c-16.311,4.137-23.19,6.812-33.603,10.863c-7.513,2.922-17.255,7.578-24.224,11.63
							c-8.236,4.788-19.165,11.363-26.693,17.2c-14.364,11.138-14.364,11.138-30.607,27.229
							c-4.612,4.569-10.266,11.176-14.12,16.401c-6.297,8.538-14.254,20.265-19.657,29.395
							c-2.375,4.014-14.619,25.534-22.394,55.101C62.478,223.022,62.471,248.091,62.549,252.815"/>
						<path fill="#79869A" d="M507.265,224.913c-0.231,124.311-94.6,237.743-210.786,253.368c-0.23-0.001-0.536-0.003-0.765-0.004
							C92.037,488.477,14.461,268.387,104.727,165.238c98.363-112.403,306.221-18.611,317.726,143.367
							c8.827,124.286-82.219,154.943-125.973,169.676C412.666,462.656,507.035,349.223,507.265,224.913
							c0.146-78.784-37.559-143.026-94.775-175.533c-3.595-1.907-8.388-4.449-11.983-6.356c-5.4-2.482-12.615-5.768-18.116-8.02
							l-9.885-3.626c-3.479-1.104-8.105-2.617-11.611-3.63l-7.998-2.118c-2.522-0.575-5.877-1.376-8.409-1.904l-6.679-1.282
							c-2.015-0.327-4.697-0.79-6.717-1.088l-5.833-0.784c-1.734-0.19-4.044-0.463-5.78-0.631l-5.33-0.454
							c-1.584-0.099-3.695-0.249-5.28-0.33l-5.089-0.206c-1.524-0.029-3.555-0.083-5.079-0.095l-5.081,0.015
							c-1.541,0.038-3.595,0.072-5.135,0.128l-5.324,0.252c-1.642,0.116-3.832,0.251-5.472,0.386l-5.877,0.559
							c-1.852,0.224-4.324,0.499-6.173,0.748l-7.678,1.174c-22.271,4.209-32.974,7.651-49.981,14.261l-12.128,5.396
							c-15.699,8.09-16.639,8.575-25.721,14.371l-13.069,9.063c-5.611,4.484-13.078,10.493-18.454,15.256l-12.153,11.972
							c-4.282,4.88-10.067,11.329-14.12,16.401l-10.345,14.269c-3.25,5.279-7.711,12.247-10.725,17.665l-8.039,16.109
							c-2.293,5.654-5.512,13.134-7.556,18.883l-5.385,17.57c-1.325,5.983-3.277,13.924-4.339,19.959l-2.443,18.685
							c-0.309,6.25-0.92,14.579-0.954,20.836l0.736,19.137c1.202,10.045,3.146,23.406,5.069,33.338l4.798,17.832
							c2.023,5.684,4.551,13.329,6.817,18.92l7.507,16.457c2.927,5.291,6.686,12.43,9.838,17.59l9.871,14.713
							c3.82,4.86,8.808,11.43,12.838,16.118l11.737,12.524c4.801,4.43,11.15,10.402,16.151,14.605l12.674,9.733
							c6.141,4.091,14.376,9.487,20.723,13.252l11.983,6.356c5.4,2.482,12.615,5.768,18.115,8.02l9.885,3.626
							c3.479,1.104,8.105,2.617,11.611,3.629l7.998,2.118c2.522,0.575,5.877,1.376,8.409,1.904l6.678,1.282
							c2.015,0.327,4.697,0.79,6.716,1.088l5.833,0.784c1.734,0.19,4.044,0.463,5.78,0.631l5.33,0.454
							c1.584,0.099,3.695,0.249,5.28,0.33l5.089,0.206c1.524,0.029,3.555,0.083,5.079,0.095l5.081-0.015
							c1.541-0.038,3.595-0.072,5.135-0.128l5.324-0.252c1.642-0.116,3.832-0.251,5.472-0.386l5.877-0.559
							c1.852-0.224,4.324-0.499,6.173-0.748l7.624-1.163c17.387-3.273,28.36-5.958,47.42-13.215l11.976-5.15
							c15.402-7.676,16.66-8.303,26.362-14.321l13.078-8.859c5.713-4.46,13.307-10.447,18.784-15.195l12.242-11.813
							c4.352-4.856,10.225-11.274,14.348-16.325l10.473-14.143c3.31-5.255,7.848-12.191,10.923-17.588l8.192-16.007
							c2.352-5.633,5.647-13.082,7.751-18.813l5.557-17.491c1.386-5.964,3.417-13.88,4.541-19.899l2.632-18.628
							c0.418-6.978,1.111-16.281,1.186-23.271l-0.736-19.137c-0.732-6.12-1.514-14.309-2.514-20.39l-3.816-18.218
							c-1.707-5.805-3.807-13.602-5.764-19.327l-6.626-16.96c-2.625-5.429-5.972-12.747-8.828-18.058l-9.117-15.347
							c-3.515-5.008-8.083-11.776-11.812-16.626l-11.179-13.321c-4.449-4.572-10.308-10.745-14.958-15.111l-12.351-10.627
							c-16.355-12.223-18.064-13.501-31.056-21.087C469.706,81.887,507.412,146.129,507.265,224.913"/>
						<path fill="#768295" d="M507.265,224.913c-0.192,103.147-65.197,198.806-153.7,237.312c-3.04,1.601-7.094,3.736-10.134,5.337
							C187.77,533.069,14.814,356.468,79.055,197.616C130.47,70.482,342.822,75.508,414.206,241.208
							c37.692,87.493,12.189,180.444-60.64,221.017C442.069,423.719,507.074,328.06,507.265,224.913
							c0.146-78.784-37.559-143.026-94.775-175.533v0c-15.04-7.977-16.972-9.002-30.099-14.376l-9.885-3.626
							c-3.479-1.104-8.105-2.617-11.611-3.63l-7.998-2.118c-2.522-0.575-5.877-1.376-8.409-1.904l-6.679-1.282
							c-2.015-0.327-4.697-0.79-6.717-1.088l-5.833-0.784c-1.734-0.19-4.044-0.463-5.78-0.631l-5.33-0.454
							c-1.584-0.099-3.695-0.249-5.28-0.33l-5.089-0.206c-1.524-0.029-3.555-0.083-5.079-0.095l-5.081,0.015
							c-1.541,0.038-3.595,0.072-5.135,0.128l-5.324,0.252c-1.642,0.116-3.832,0.251-5.472,0.386l-5.877,0.559
							c-1.852,0.224-4.324,0.499-6.173,0.748l-7.678,1.174c-22.271,4.209-32.974,7.651-49.981,14.261l-12.128,5.396
							c-15.699,8.09-16.639,8.575-25.721,14.371l-13.069,9.063c-5.611,4.484-13.078,10.493-18.454,15.256l-12.153,11.972
							c-4.282,4.88-10.067,11.329-14.12,16.401l-10.345,14.269c-3.25,5.279-7.711,12.247-10.725,17.665l-8.039,16.109
							c-2.293,5.654-5.512,13.134-7.556,18.883l-5.385,17.57c-1.325,5.983-3.277,13.924-4.339,19.959l-2.443,18.685
							c-0.309,6.25-0.92,14.579-0.954,20.836l0.736,19.137c1.202,10.045,3.146,23.406,5.069,33.338l4.798,17.832
							c2.023,5.684,4.551,13.329,6.817,18.92l7.507,16.457c2.927,5.291,6.686,12.43,9.838,17.59l9.871,14.713
							c3.82,4.86,8.808,11.43,12.838,16.118l11.737,12.524c4.801,4.43,11.15,10.402,16.151,14.605l12.674,9.733
							c6.141,4.091,14.376,9.487,20.723,13.252l11.983,6.356c5.4,2.482,12.615,5.768,18.115,8.02l9.885,3.626
							c3.479,1.104,8.105,2.617,11.611,3.629l7.998,2.118c2.522,0.575,5.877,1.376,8.409,1.904l6.678,1.282
							c2.015,0.327,4.697,0.79,6.716,1.088l5.833,0.784c1.734,0.19,4.044,0.463,5.78,0.631l5.33,0.454
							c1.584,0.099,3.695,0.249,5.28,0.33l5.089,0.206c1.524,0.029,3.555,0.083,5.079,0.095l5.081-0.015
							c1.541-0.038,3.595-0.072,5.135-0.128l5.324-0.252c1.642-0.116,3.832-0.251,5.472-0.386l5.877-0.559
							c1.852-0.224,4.324-0.499,6.173-0.748l7.624-1.163c17.387-3.273,28.36-5.958,47.42-13.215l11.976-5.15
							c15.402-7.676,16.66-8.303,26.362-14.321l13.078-8.859c5.713-4.46,13.307-10.447,18.784-15.195l12.242-11.813
							c4.352-4.856,10.225-11.274,14.348-16.325l10.473-14.143c3.31-5.255,7.848-12.191,10.923-17.588l8.192-16.007
							c2.352-5.633,5.647-13.082,7.751-18.813l5.557-17.491c1.386-5.964,3.417-13.88,4.541-19.899l2.632-18.628
							c0.418-6.978,1.111-16.281,1.186-23.271l-0.736-19.137c-0.732-6.12-1.514-14.309-2.514-20.39l-3.816-18.218
							c-1.707-5.805-3.807-13.602-5.764-19.327l-6.626-16.96c-2.625-5.429-5.972-12.747-8.828-18.058l-9.117-15.347
							c-3.515-5.008-8.083-11.776-11.812-16.626l-11.179-13.321c-4.449-4.572-10.308-10.745-14.958-15.111l-12.351-10.627
							c-16.355-12.223-18.064-13.501-31.056-21.087C469.706,81.887,507.412,146.129,507.265,224.913"/>
						<g>
							<path fill="#727E90" d="M72.262,320.08C26.684,157.399,176.27,44.375,326.321,128.119
								c110.209,61.508,159.69,225.709,61.216,315.824c70.678-45.805,119.562-129.603,119.728-219.03
								c0.146-78.784-37.559-143.026-94.775-175.533v0c-15.04-7.977-16.972-9.002-30.099-14.376l-9.885-3.626
								c-3.479-1.104-8.105-2.617-11.611-3.63l-7.998-2.118c-2.522-0.575-5.877-1.376-8.409-1.904l-6.679-1.282
								c-2.015-0.327-4.697-0.79-6.717-1.088l-5.833-0.784c-1.734-0.19-4.044-0.463-5.78-0.631l-5.33-0.454
								c-1.584-0.099-3.695-0.249-5.28-0.33l-5.089-0.206c-1.524-0.029-3.555-0.083-5.079-0.095l-5.081,0.015
								c-1.541,0.038-3.595,0.072-5.135,0.128l-5.324,0.252c-1.642,0.116-3.832,0.251-5.472,0.386l-5.877,0.559
								c-1.852,0.224-4.324,0.499-6.173,0.748l-7.678,1.174c-22.271,4.209-32.974,7.651-49.981,14.261l-12.128,5.396
								c-15.699,8.09-16.639,8.575-25.721,14.371l-13.069,9.063c-5.611,4.484-13.078,10.493-18.454,15.256l-12.153,11.972
								c-4.282,4.88-10.067,11.329-14.12,16.401l-10.345,14.269c-3.25,5.279-7.711,12.247-10.725,17.665l-8.039,16.109
								c-2.293,5.654-5.512,13.134-7.556,18.883l-5.385,17.57c-1.325,5.983-3.277,13.924-4.339,19.959l-2.443,18.685
								c-0.309,6.25-0.92,14.579-0.954,20.836l0.736,19.137c1.202,10.045,3.146,23.406,5.069,33.338l4.798,17.832l5.096,14.598
								l-5.722-16.749C72.453,320.702,72.337,320.348,72.262,320.08"/>
							<path fill="#727E90" d="M507.265,224.913c-0.166,89.427-49.05,173.226-119.728,219.03v0
								c-27.69,23.896-104.024,72.526-214.528,8.147c5.984,3.565,14.128,8.036,20.281,11.3c5.4,2.482,12.615,5.768,18.115,8.02
								l9.885,3.626c3.479,1.104,8.105,2.617,11.611,3.629l7.998,2.118c2.522,0.575,5.877,1.376,8.409,1.904l6.678,1.282
								c2.015,0.327,4.697,0.79,6.716,1.088l5.833,0.784c1.734,0.19,4.044,0.463,5.78,0.631l5.33,0.454
								c1.584,0.099,3.695,0.249,5.28,0.33l5.089,0.206c1.524,0.029,3.555,0.083,5.079,0.095l5.081-0.015
								c1.541-0.038,3.595-0.072,5.135-0.128l5.324-0.252c1.642-0.116,3.832-0.251,5.472-0.386l5.877-0.559
								c1.852-0.224,4.324-0.499,6.173-0.748l7.624-1.163c17.387-3.273,28.36-5.958,47.42-13.215l11.976-5.15
								c15.402-7.676,16.66-8.303,26.362-14.321l13.078-8.859c5.713-4.46,13.307-10.447,18.784-15.195l12.242-11.813
								c4.352-4.856,10.225-11.274,14.348-16.325l10.473-14.143c3.31-5.255,7.848-12.191,10.923-17.588l8.192-16.007
								c2.352-5.633,5.647-13.082,7.751-18.813l5.557-17.491c1.386-5.964,3.417-13.88,4.541-19.899l2.632-18.628
								c0.418-6.978,1.111-16.281,1.186-23.271l-0.736-19.137c-0.732-6.12-1.514-14.309-2.514-20.39l-3.816-18.218
								c-1.707-5.805-3.807-13.602-5.764-19.327l-6.626-16.96c-2.625-5.429-5.972-12.747-8.828-18.058l-9.117-15.347
								c-3.515-5.008-8.083-11.776-11.812-16.626l-11.179-13.321c-4.449-4.572-10.308-10.745-14.958-15.111l-12.351-10.627
								c-16.355-12.223-18.064-13.501-31.056-21.087C469.706,81.887,507.412,146.129,507.265,224.913"/>
						</g>
						<g>
							<path fill="#6E7A8C" d="M65.39,289.815C43.242,103.008,233.948,36.349,363.633,142.112
								c66.608,54.322,126.059,177.925,49.684,282.64c56.512-47.956,93.803-121.751,93.948-199.84
								c0.146-78.784-37.559-143.026-94.775-175.533v0c-15.04-7.977-16.972-9.002-30.099-14.376l-9.885-3.626
								c-3.479-1.104-8.105-2.617-11.611-3.63l-7.998-2.118c-2.522-0.575-5.877-1.376-8.409-1.904l-6.679-1.282
								c-2.015-0.327-4.697-0.79-6.717-1.088l-5.833-0.784c-1.734-0.19-4.044-0.463-5.78-0.631l-5.33-0.454
								c-1.584-0.099-3.695-0.249-5.28-0.33l-5.089-0.206c-1.524-0.029-3.555-0.083-5.079-0.095l-5.081,0.015
								c-1.541,0.038-3.595,0.072-5.135,0.128l-5.324,0.252c-1.642,0.116-3.832,0.251-5.472,0.386l-5.877,0.559
								c-1.852,0.224-4.324,0.499-6.173,0.748l-7.678,1.174c-22.271,4.209-32.974,7.651-49.981,14.261l-12.128,5.396
								c-15.699,8.09-16.639,8.575-25.721,14.371l-13.069,9.063c-5.611,4.484-13.078,10.493-18.454,15.256l-12.153,11.972
								c-4.282,4.88-10.067,11.329-14.12,16.401l-10.345,14.269c-3.25,5.279-7.711,12.247-10.725,17.665l-8.039,16.109
								c-2.293,5.654-5.512,13.134-7.556,18.883l-5.385,17.57c-1.325,5.983-3.277,13.924-4.339,19.959l-2.443,18.685
								c-0.309,6.25-0.92,14.579-0.954,20.836l0.736,19.137c0.769,6.423,1.621,15.015,2.685,21.396L65.39,289.815"/>
							<path fill="#6E7A8C" d="M507.265,224.913c-0.145,78.088-37.437,151.884-93.948,199.84v0
								c-42.963,56.601-119.787,75.83-195.718,48.987l9.779,3.281l5.524,1.644l7.998,2.118c2.522,0.575,5.877,1.376,8.409,1.904
								l6.678,1.282c2.015,0.327,4.697,0.79,6.716,1.088l5.833,0.784c1.734,0.19,4.044,0.463,5.78,0.631l5.33,0.454
								c1.584,0.099,3.695,0.249,5.28,0.33l5.089,0.206c1.524,0.029,3.555,0.083,5.079,0.095l5.081-0.015
								c1.541-0.038,3.595-0.072,5.135-0.128l5.324-0.252c1.642-0.116,3.832-0.251,5.472-0.386l5.877-0.559
								c1.852-0.224,4.324-0.499,6.173-0.748l7.624-1.163c17.387-3.273,28.36-5.958,47.42-13.215l11.976-5.15
								c15.402-7.676,16.66-8.303,26.362-14.321l13.078-8.859c5.713-4.46,13.307-10.447,18.784-15.195l12.242-11.813
								c4.352-4.856,10.225-11.274,14.348-16.325l10.473-14.143c3.31-5.255,7.848-12.191,10.923-17.588l8.192-16.007
								c2.352-5.633,5.647-13.082,7.751-18.813l5.557-17.491c1.386-5.964,3.417-13.88,4.541-19.899l2.632-18.628
								c0.418-6.978,1.111-16.281,1.186-23.271l-0.736-19.137c-0.732-6.12-1.514-14.309-2.514-20.39l-3.816-18.218
								c-1.707-5.805-3.807-13.602-5.764-19.327l-6.626-16.96c-2.625-5.429-5.972-12.747-8.828-18.058l-9.117-15.347
								c-3.515-5.008-8.083-11.776-11.812-16.626l-11.179-13.321c-4.449-4.572-10.308-10.745-14.958-15.111l-12.351-10.627
								c-16.355-12.223-18.064-13.501-31.056-21.087C469.706,81.887,507.412,146.129,507.265,224.913"/>
						</g>
						<g>
							<path fill="#6B7687" d="M62.55,252.626c9.39-199.382,225.393-210.959,330.536-96.929
								c67.77,73.498,84.671,173.258,42.056,248.24c44.093-47.174,71.999-111.494,72.124-179.024
								c0.146-78.784-37.559-143.026-94.775-175.533c-3.595-1.907-8.388-4.449-11.983-6.356c-5.4-2.482-12.615-5.768-18.116-8.02
								l-9.885-3.626c-3.479-1.104-8.105-2.617-11.611-3.63l-7.998-2.118c-2.522-0.575-5.877-1.376-8.409-1.904l-6.679-1.282
								c-2.015-0.327-4.697-0.79-6.717-1.088l-5.833-0.784c-1.734-0.19-4.044-0.463-5.78-0.631l-5.33-0.454
								c-1.584-0.099-3.695-0.249-5.28-0.33l-5.089-0.206c-1.524-0.029-3.555-0.083-5.079-0.095l-5.081,0.015
								c-1.541,0.038-3.595,0.072-5.135,0.128l-5.324,0.252c-1.642,0.116-3.832,0.251-5.472,0.386l-5.877,0.559
								c-1.852,0.224-4.324,0.499-6.173,0.748l-7.678,1.174c-22.271,4.209-32.974,7.651-49.981,14.261l-12.128,5.396
								c-15.699,8.09-16.639,8.575-25.721,14.371l-13.069,9.063c-5.611,4.484-13.078,10.493-18.454,15.256l-12.153,11.972
								c-4.282,4.88-10.067,11.329-14.12,16.401l-10.345,14.269c-3.25,5.279-7.711,12.247-10.725,17.665l-8.039,16.109
								c-2.293,5.654-5.512,13.134-7.556,18.883l-5.385,17.57c-1.325,5.983-3.277,13.924-4.339,19.959l-2.443,18.685
								c-0.309,6.25-0.92,14.579-0.954,20.836L62.55,252.626"/>
							<path fill="#6B7687" d="M507.265,224.913c-0.125,67.53-28.031,131.85-72.124,179.024c-2.025,3.541-4.725,8.262-6.751,11.803
								c-53.278,72.388-123.996,76.907-173.94,67.952l6.541,1.107l1.711,0.258l5.833,0.784c1.734,0.19,4.044,0.463,5.78,0.631
								l5.33,0.454c1.584,0.099,3.695,0.249,5.28,0.33l5.089,0.206c1.524,0.029,3.555,0.083,5.079,0.095l5.081-0.015
								c1.541-0.038,3.595-0.072,5.135-0.128l5.324-0.252c1.642-0.116,3.832-0.251,5.472-0.386l5.877-0.559
								c1.852-0.224,4.324-0.499,6.173-0.748l7.624-1.163c17.387-3.273,28.36-5.958,47.42-13.215l11.976-5.15
								c15.402-7.676,16.66-8.303,26.362-14.321l13.078-8.859c5.713-4.46,13.307-10.447,18.784-15.195l12.242-11.813
								c4.352-4.856,10.225-11.274,14.348-16.325l10.473-14.143c3.31-5.255,7.848-12.191,10.923-17.588l8.192-16.007
								c2.352-5.633,5.647-13.082,7.751-18.813l5.557-17.491c1.386-5.964,3.417-13.88,4.541-19.899l2.632-18.628
								c0.418-6.978,1.111-16.281,1.186-23.271l-0.736-19.137c-0.732-6.12-1.514-14.309-2.514-20.39l-3.816-18.218
								c-1.707-5.805-3.807-13.602-5.764-19.327l-6.626-16.96c-2.625-5.429-5.972-12.747-8.828-18.058l-9.117-15.347
								c-3.515-5.008-8.083-11.776-11.812-16.626l-11.179-13.321c-4.449-4.572-10.308-10.745-14.958-15.111l-12.351-10.627
								c-16.355-12.223-18.064-13.501-31.056-21.087C469.706,81.887,507.412,146.129,507.265,224.913"/>
						</g>
						<g>
							<path fill="#677282" d="M67.752,204.453c40.009-170.33,266.712-177.148,367.532-11.055
								c35.768,58.925,43.151,130.679,19.267,187.26c32.713-44.043,52.608-98.751,52.714-155.746
								c0.146-78.784-37.559-143.026-94.775-175.533v0c-15.04-7.977-16.972-9.002-30.099-14.376l-9.885-3.626
								c-3.479-1.104-8.105-2.617-11.611-3.63l-7.998-2.118c-2.522-0.575-5.877-1.376-8.409-1.904l-6.679-1.282
								c-2.015-0.327-4.697-0.79-6.717-1.088l-5.833-0.784c-1.734-0.19-4.044-0.463-5.78-0.631l-5.33-0.454
								c-1.584-0.099-3.695-0.249-5.28-0.33l-5.089-0.206c-1.524-0.029-3.555-0.083-5.079-0.095l-5.081,0.015
								c-1.541,0.038-3.595,0.072-5.135,0.128l-5.324,0.252c-1.642,0.116-3.832,0.251-5.472,0.386l-5.877,0.559
								c-1.852,0.224-4.324,0.499-6.173,0.748l-7.678,1.174c-22.271,4.209-32.974,7.651-49.981,14.261l-12.128,5.396
								c-15.699,8.09-16.639,8.575-25.721,14.371l-13.069,9.063c-5.611,4.484-13.078,10.493-18.454,15.256l-12.153,11.972
								c-4.282,4.88-10.067,11.329-14.12,16.401l-10.345,14.269c-3.25,5.279-7.711,12.247-10.725,17.665l-8.039,16.109
								c-2.293,5.654-5.512,13.134-7.556,18.883l-5.385,17.57c-1.325,5.983-3.277,13.924-4.339,19.959
								c-0.286,1.805-0.668,4.212-0.954,6.017C65.82,214.854,66.82,208.89,67.752,204.453"/>
							<path fill="#677282" d="M507.265,224.913c-0.106,56.995-20.001,111.703-52.714,155.746c-0.425,1.248-0.993,2.912-1.418,4.16
								c-28.695,66.489-87.866,103.909-162.342,102.665c2.815,0.048,6.568,0.067,9.383,0.059c1.541-0.038,3.595-0.072,5.135-0.128
								l5.324-0.252c1.642-0.116,3.832-0.251,5.472-0.386l5.877-0.559c1.852-0.224,4.324-0.499,6.173-0.748l7.624-1.163
								c17.387-3.273,28.36-5.958,47.42-13.215l11.976-5.15c15.402-7.676,16.66-8.303,26.362-14.321l13.078-8.859
								c5.713-4.46,13.307-10.447,18.784-15.195l12.242-11.813c4.352-4.856,10.225-11.274,14.348-16.325l10.473-14.143
								c3.31-5.255,7.848-12.191,10.923-17.588l8.192-16.007c2.352-5.633,5.647-13.082,7.751-18.813l5.557-17.491
								c1.386-5.964,3.417-13.88,4.541-19.899l2.632-18.628c0.418-6.978,1.111-16.281,1.186-23.271l-0.736-19.137
								c-0.732-6.12-1.514-14.309-2.514-20.39l-3.816-18.218c-1.707-5.805-3.807-13.602-5.764-19.327l-6.626-16.96
								c-2.625-5.429-5.972-12.747-8.828-18.058l-9.117-15.347c-3.515-5.008-8.083-11.776-11.812-16.626l-11.179-13.321
								c-4.449-4.572-10.308-10.745-14.958-15.111l-12.351-10.627c-16.355-12.223-18.064-13.501-31.056-21.087
								C469.706,81.887,507.412,146.129,507.265,224.913"/>
						</g>
						<g>
							<path fill="#636E7E" d="M74.035,180.617C142.798-1.29,376.676,40.485,455.941,205.666
								c16.229,33.821,32.244,86.922,16.374,147.829c22.011-38.49,34.866-82.798,34.951-128.582
								c0.146-78.784-37.559-143.026-94.775-175.533v0c-15.04-7.977-16.972-9.002-30.099-14.376l-9.885-3.626
								c-3.479-1.104-8.105-2.617-11.611-3.63l-7.998-2.118c-2.522-0.575-5.877-1.376-8.409-1.904l-6.679-1.282
								c-2.015-0.327-4.697-0.79-6.717-1.088l-5.833-0.784c-1.734-0.19-4.044-0.463-5.78-0.631l-5.33-0.454
								c-1.584-0.099-3.695-0.249-5.28-0.33l-5.089-0.206c-1.524-0.029-3.555-0.083-5.079-0.095l-5.081,0.015
								c-1.541,0.038-3.595,0.072-5.135,0.128l-5.324,0.252c-1.642,0.116-3.832,0.251-5.472,0.386l-5.877,0.559
								c-1.852,0.224-4.324,0.499-6.173,0.748l-7.678,1.174c-22.271,4.209-32.974,7.651-49.981,14.261l-12.128,5.396
								c-15.699,8.09-16.639,8.575-25.721,14.371l-13.069,9.063c-5.611,4.484-13.078,10.493-18.454,15.256l-12.153,11.972
								c-4.282,4.88-10.067,11.329-14.12,16.401l-10.345,14.269c-3.25,5.279-7.711,12.247-10.725,17.665l-8.039,16.109
								c-2.293,5.654-5.512,13.134-7.556,18.883c-0.728,2.193-1.698,5.118-2.426,7.311
								C73.481,182.338,73.779,181.348,74.035,180.617"/>
							<path fill="#636E7E" d="M507.265,224.913c-0.085,45.784-12.94,90.092-34.951,128.582c-0.943,4.321-2.199,10.082-3.142,14.403
								c-30.81,84.379-92.964,110.409-139.678,117.387l7.694-1.223c11.684-2.274,24.927-4.852,46.012-12.971l11.976-5.15
								c15.402-7.676,16.66-8.303,26.362-14.321l13.078-8.859c5.713-4.46,13.307-10.447,18.784-15.195l12.242-11.813
								c4.352-4.856,10.225-11.274,14.348-16.325l10.473-14.143c3.31-5.255,7.848-12.191,10.923-17.588l8.192-16.007
								c2.352-5.633,5.647-13.082,7.751-18.813l5.557-17.491c1.386-5.964,3.417-13.88,4.541-19.899l2.632-18.628
								c0.418-6.978,1.111-16.281,1.186-23.271l-0.736-19.137c-0.732-6.12-1.514-14.309-2.514-20.39l-3.816-18.218
								c-1.707-5.805-3.807-13.602-5.764-19.327l-6.626-16.96c-2.625-5.429-5.972-12.747-8.828-18.058l-9.117-15.347
								c-3.515-5.008-8.083-11.776-11.812-16.626l-11.179-13.321c-4.449-4.572-10.308-10.745-14.958-15.111l-12.351-10.627
								c-16.355-12.223-18.064-13.501-31.056-21.087C469.706,81.887,507.412,146.129,507.265,224.913"/>
						</g>
						<g>
							<path fill="#606A79" d="M100.273,126.201C211.188-32.318,455.204,76.824,486.676,254.269
								c4.387,24.733,5.865,33.065,2.413,64.32c11.627-29.448,18.116-61.191,18.176-93.676
								c0.146-78.784-37.559-143.026-94.775-175.533v0c-15.04-7.977-16.972-9.002-30.099-14.376l-9.885-3.626
								c-3.479-1.104-8.105-2.617-11.611-3.63l-7.998-2.118c-2.522-0.575-5.877-1.376-8.409-1.904l-6.679-1.282
								c-2.015-0.327-4.697-0.79-6.717-1.088l-5.833-0.784c-1.734-0.19-4.044-0.463-5.78-0.631l-5.33-0.454
								c-1.584-0.099-3.695-0.249-5.28-0.33l-5.089-0.206c-1.524-0.029-3.555-0.083-5.079-0.095l-5.081,0.015
								c-1.541,0.038-3.595,0.072-5.135,0.128l-5.324,0.252c-1.642,0.116-3.832,0.251-5.472,0.386l-5.877,0.559
								c-1.852,0.224-4.324,0.499-6.173,0.748l-7.678,1.174c-22.271,4.209-32.974,7.651-49.981,14.261l-12.128,5.396
								c-15.699,8.09-16.639,8.575-25.721,14.371l-13.069,9.063c-5.611,4.484-13.078,10.493-18.454,15.256l-12.153,11.972
								c-4.282,4.88-10.067,11.329-14.12,16.401l-10.345,14.269c-3.25,5.279-7.711,12.247-10.725,17.665l6.408-10.674
								C98.453,128.929,99.467,127.353,100.273,126.201"/>
							<path fill="#606A79" d="M507.265,224.913c-0.06,32.485-6.549,64.228-18.176,93.676c-0.08,4.082-0.188,9.525-0.268,13.607
								c-17.06,97.872-83.956,132.71-122.313,144.765l8.548-2.823l8.144-3.046l11.976-5.15c15.402-7.676,16.66-8.303,26.362-14.321
								l13.078-8.859c5.713-4.46,13.307-10.447,18.784-15.195l12.242-11.813c4.352-4.856,10.225-11.274,14.348-16.325l10.473-14.143
								c3.31-5.255,7.848-12.191,10.923-17.588l8.192-16.007c2.352-5.633,5.647-13.082,7.751-18.813l5.557-17.491
								c1.386-5.964,3.417-13.88,4.541-19.899l2.632-18.628c0.418-6.978,1.111-16.281,1.186-23.271l-0.736-19.137
								c-0.732-6.12-1.514-14.309-2.514-20.39l-3.816-18.218c-1.707-5.805-3.807-13.602-5.764-19.327l-6.626-16.96
								c-2.625-5.429-5.972-12.747-8.828-18.058l-9.117-15.347c-3.515-5.008-8.083-11.776-11.812-16.626l-11.179-13.321
								c-4.449-4.572-10.308-10.745-14.958-15.111l-12.351-10.627c-16.355-12.223-18.064-13.501-31.056-21.087
								C469.706,81.887,507.412,146.129,507.265,224.913"/>
						</g>
						<path fill="#7D8A9E" d="M232.133,472.966C378.896,501.86,467.872,344.757,378.6,214.352
							C286.53,79.857,93.965,101.749,71.072,249.313C55.949,346.793,132.717,453.394,232.133,472.966"/>
						<path fill="#818EA3" d="M210.77,465.003c152.821,47.225,240.584-105.053,171.545-228.209
							c-83.993-149.832-271.514-130.942-304.443-4.057C50.396,338.616,124.406,438.315,210.77,465.003"/>
						<path fill="#8492A8" d="M181.414,450.311c131.731,68.193,245.252-47.466,209.903-168.647
							C344.313,120.528,151.976,96.186,91.595,209.99C48.616,290.993,90.588,403.293,181.414,450.311"/>
						<path fill="#8896AC" d="M172.262,442.699c123.269,69.682,247.255-25.772,210.58-162.12
							C348.206,151.816,153.608,89.736,91.442,221.41C52.297,304.323,101.628,402.77,172.262,442.699"/>
						<path fill="#8C9AB1" d="M158.381,430.648c112.57,76.523,238.654,2.968,221.164-129.024
							c-17.828-134.538-195.581-197.803-271.708-96.704C53.285,277.364,89.529,383.843,158.381,430.648"/>
						<path fill="#909EB6" d="M156.614,425.866c115.971,83.12,235.346-7.232,215.69-125.078
							c-23.375-140.142-205.287-177.816-264.655-84.987C60.256,289.908,96.165,382.54,156.614,425.866"/>
						<path fill="#93A2BA" d="M158.48,423.253c119.591,84.46,226.071-20.464,206.481-123.224
							C338.5,161.22,167.12,131.704,107.923,227.27C70.106,288.319,92.313,374.405,158.48,423.253"/>
						<path fill="#97A6BF" d="M144.646,407.061c104.062,94.281,217.237,13.181,215.077-86.637
							c-2.965-137.017-164.844-175.289-231.667-107.312C72.408,269.719,91.707,359.098,144.646,407.061"/>
						<path fill="#9BABC4" d="M147.722,404.402c98.515,89.071,218.725,7.12,204.962-105.456
							c-13.349-109.19-168.65-154.424-230.794-67.222C79.855,290.707,103.826,364.715,147.722,404.402"/>
						<path fill="#9EAFC8" d="M151.658,401.638c100.188,87.682,209.255-7.559,196.078-103.064
							c-14.162-102.648-157.178-144.517-218.61-63.999C82.631,295.514,114.312,368.954,151.658,401.638"/>
						<path fill="#A2B3CD" d="M141.434,383.509c81.213,94.956,196.404,25.889,201.977-64.418
							c6.434-104.248-127.814-154.684-193.179-94.855C85.891,283.128,116.343,354.172,141.434,383.509"/>
						<path fill="#A6B7D2" d="M146.848,380.701c75.855,86.235,185.451,21.184,191.61-61.934
							c6.582-88.822-106.608-158.109-185.041-87.829C100.069,278.74,117.46,347.291,146.848,380.701"/>
						<path fill="#A9BBD6" d="M153.39,377.807c70.166,78.142,173.471,17.022,180.084-59.329
							c6.891-79.564-96.881-155.522-179.699-78.468C121.791,269.769,113.766,333.679,153.39,377.807"/>
						<path fill="#ADBFDB" d="M160.953,374.95c63.208,64.647,159.759,19.887,167.618-56.72
							c8.948-87.227-94.111-138.823-162.167-81.188C120.498,275.918,126.524,339.736,160.953,374.95"/>
						<path fill="#B1C3E0" d="M155.544,355.239c33.354,50.162,87.752,41.828,88.28,41.712c18.202-3.989,73.593-16.127,81.302-78.875
							c9.243-75.228-78.741-127.579-144.835-86.177C140.846,256.607,129.051,315.396,155.544,355.239"/>
						<path fill="#B4C7E4" d="M163.396,352.884c45.067,65.469,147.133,42.934,158.275-34.945
							c5.064-35.396-12.981-67.634-49.51-88.446c-9.909-5.646-45.785-21.742-91.398,8.163
							C153.535,255.507,131.682,306.813,163.396,352.884"/>
						<path fill="#B8CBE9" d="M169.905,351.139c45.37,57.449,136.845,36.896,148.301-33.321
							c2.562-15.706,3.212-55.367-45.972-84.376c-14.811-8.736-45.719-19.527-86.313,6.352
							C150.381,262.45,142.598,316.562,169.905,351.139"/>
						<path fill="#C1D1EC" d="M176.756,349.476c46.843,55.761,127.047,27.948,137.974-31.762
							c11.387-62.225-64.029-112.66-118.669-79.361C139.209,273,162.016,331.93,176.756,349.476"/>
						<path fill="#C4D4ED" d="M177.553,339.524c12.562,19.321,36.654,40.86,80.085,33.747c21.147-3.463,47.734-26.648,53.608-55.642
							c5.51-27.195-6.491-52.357-35.668-74.787c-15.669-12.046-53.149-15.183-69.144-5.788
							c-32.288,18.964-33.818,24.391-41.169,50.473C164.179,291.382,159.664,312.01,177.553,339.524"/>
						<path fill="#C7D6EE" d="M188.012,347.077c20.091,20.626,57.699,27.04,68.862,22.389c28.054-11.688,28.59-11.911,42.814-31.883
							c6.062-8.511,11.071-25.241,8.915-40.747c-3.17-22.797-18.517-38.583-23.145-42.878
							c-12.081-11.211-12.081-11.211-44.294-19.704c-20.38-5.373-55.534,19.239-61.485,28.589
							C150.877,308.094,186.482,345.506,188.012,347.077"/>
						<path fill="#C9D7EE" d="M179.698,327.833c8.289,15.792,29.241,41.7,76.426,37.787c13.557-1.124,42.893-23.042,48.133-48.115
							c7.932-37.952-21.781-62.46-23.049-63.485c-15.553-12.562-38.919-16.627-39.906-16.793
							c-9.097-1.538-21.889,1.253-30.357,4.914c-8.872,3.836-19.16,12.419-25.446,19.761c-2.216,2.588-11.956,23.824-12.019,23.998
							C173.415,286.078,169.353,308.125,179.698,327.833"/>
						<path fill="#CBD9EF" d="M183.642,327.064c5.141,9.09,25.509,38.455,71.746,34.671l22.332-9.64
							c11.458-11.152,19.028-18.52,23.147-34.624c6.915-27.037-7.818-50.46-23.911-63.365c-10.629-8.523-35.291-13.88-35.508-13.908
							c-9.134-1.183-21.804,1.658-30.223,5.392c-3.955,1.754-24.159,11.904-33.513,39.533
							C176.356,289.129,174.337,310.611,183.642,327.064"/>
						<path fill="#CDDAEF" d="M187.671,326.319c0.067,0.112,14.393,16.72,16.13,17.974c7.349,5.303,18.949,9.387,27.146,13.251
							c6.442,3.037,16.639,0.936,23.738,0.363c7.396-0.596,17.343-4.63,22.743-9.718c13.692-12.901,18.528-24.795,20.192-30.737
							c2.992-10.682,6.555-38.227-24.895-63.219c-7.758-6.165-21.249-10.229-31.122-11.068c-9.161-0.778-21.71,2.062-30.08,5.868
							C192.274,257.789,167.119,292.047,187.671,326.319"/>
						<path fill="#CFDCF0" d="M191.783,325.598c7.337,12.139,25.191,32.062,62.33,29.112c7.564-0.601,17.46-5.305,23.029-10.459
							c10.7-9.904,17.18-26.65,17.226-26.801c6.306-20.76-2.144-44.036-21.529-59.298c-2.949-2.322-27.053-11.647-31.073-12.021
							c-9.138-0.851-21.598,2.488-29.927,6.342C211.337,252.705,165.777,282.573,191.783,325.598"/>
						<path fill="#D0DDF0" d="M195.976,324.903c8.305,13.642,26.581,22.081,32.587,24.855c6.822,3.15,17.496,2.318,24.987,1.732
							c7.736-0.605,17.561-5.999,23.311-11.209c4.822-4.368,14.205-22.678,14.251-22.819c6.712-20.537-3.836-44.163-17.912-55.139
							c-8.031-6.263-21.135-12.167-31.263-13.232c-9.11-0.958-21.475,2.915-29.764,6.813
							C211.861,256.051,171.936,285.416,195.976,324.903"/>
						<path fill="#D2DEF1" d="M199.873,324.291c0.095,0.134,12.351,14.707,28.011,21.769c6.894,3.109,17.573,2.769,25.113,2.186
							c0.106-0.008,21.19-10.136,23.572-12.238c4.878-4.304,9.176-12.364,11.285-18.519c8.949-26.124-9.678-47.61-14.768-51.529
							c-4.338-3.339-26.913-13.482-30.969-13.913c-1.655-0.176-28.187,6.524-29.573,7.468c-7.25,4.939-16.484,14.302-18.168,22.91
							C192.048,294.334,189.149,309.155,199.873,324.291"/>
						<path fill="#D3DFF1" d="M203.757,323.712c0.094,0.124,20.397,17.252,23.151,18.454c7.066,3.086,17.86,3.4,25.548,2.813
							c2.623-0.201,19.085-9.686,23.803-13.715c3.665-3.13,6.794-9.167,8.337-13.733c9.747-28.85-11.156-47.516-11.375-47.681
							c-0.179-0.135-29.134-14.665-30.913-14.851c-1.089-0.114-28.217,7.815-29.32,8.57
							C197.802,273.953,187.528,302.184,203.757,323.712"/>
						<path fill="#D4E0F2" d="M207.706,323.154c4.271,5.541,11.692,11.946,18.144,14.65c7.294,3.057,18.188,4.481,26.074,3.884
							c2.727-0.206,23.853-15.062,24.033-15.21c2.411-1.976,4.367-5.943,5.379-8.892c7.445-21.713-5.002-41.672-7.974-43.86
							c-8.324-6.128-20.545-14.338-30.828-15.388c-9.109-0.93-21.567,4.035-29.078,9.27
							C200.878,276.375,192.172,303,207.706,323.154"/>
						<path fill="#D6E1F2" d="M211.71,322.62c3.106,3.994,8.372,8.792,13.078,10.651c7.553,2.984,18.657,6.716,26.601,5.025
							c8.635-1.839,17.291-11.236,24.275-16.637c1.108-0.857,1.997-2.661,2.41-3.999c7.903-25.574-2.54-37.736-7.397-41.777
							c-7.208-5.998-18.549-13.394-27.901-14.093c-9.115-0.682-20.332,6.489-28.831,9.851
							c-10.369,4.102-11.266,30.876-11.231,31.129C203.605,309.246,207.697,317.458,211.71,322.62"/>
						<path fill="#D7E1F3" d="M215.74,322.111c1.924,2.447,5.083,5.547,8.017,6.587c7.827,2.773,18.929,7.544,27.056,5.84
							c8.458-1.773,16.699-11.339,23.416-16.775c0.743-0.601,0.813-2.082,1.035-3.012c1.251-5.253,3.894-12.618,2.475-17.829
							c-1.936-7.108-7.315-16.151-13.005-20.829c-5.624-4.624-14.434-10.446-21.703-10.864c-9.109-0.524-20.3,6.574-28.571,10.427
							c-1.613,0.751-2.954,3.012-3.724,4.616C200.578,301.444,211.936,317.272,215.74,322.111"/>
						<path fill="#D8E2F3" d="M219.789,321.63c0.719,0.905,1.86,2.127,2.968,2.459c8.13,2.436,19.163,8.287,27.494,6.667
							c6.419-1.249,13.704-7.569,17.661-12.776c3.655-4.811,5.587-13.084,6.525-19.053c0.135-0.858,0.356-2.177-0.138-2.891
							c-4.28-6.179-9.646-14.972-15.501-19.685c-4.043-3.255-10.316-7.426-15.5-7.689c-9.097-0.46-22.38,4.074-28.299,10.997
							c-4.426,5.177-5.758,15.382-4.985,22.149C210.765,308.397,215.665,316.439,219.789,321.63"/>
						<path fill="#D9E3F3" d="M221.155,316.312c1.305,1.669,3.389,3.842,5.374,4.582c6.733,2.509,16.106,7.354,23.173,6.055
							c4.348-0.799,9.467-5.001,11.899-8.693c3.707-5.626,8.747-14.428,7.725-21.087c-1.197-7.798-10.805-15.007-16.456-20.511
							c-2.226-2.168-6.191-4.42-9.294-4.569C235.629,271.708,198.277,287.072,221.155,316.312"/>
						<path fill="#DAE4F4" d="M218.815,303.883c4.449,5.796,12.188,12.093,18.359,16.004c3.147,1.994,8.331,3.92,11.993,3.23
							c2.248-0.424,5.015-2.533,6.136-4.527c3.348-5.956,9.313-14.438,8.326-21.198c-0.031-0.211-15.374-21.667-19.765-21.886
							c-3.132-0.156-5.396-0.269-25.973,23.043C216.817,299.765,217.826,302.594,218.815,303.883"/>
						<path fill="#DBE5F4" d="M247.909,319.057c0.202,0.109,0.511,0.246,0.736,0.204c1.072-0.201,9.32-21.41,9.293-21.604
							c-0.877-6.303-7.197-16.009-13.553-16.319c-7.941-0.387-19.168,10.785-18.754,18.724
							C226.09,308.833,240.172,314.9,247.909,319.057"/>
						<path fill="#DCE5F4" d="M247.404,309.525c3.661-0.859,5.418-7.838,4.855-11.556c-0.495-3.266-3.781-8.278-7.081-8.433
							c-4.11-0.193-9.901,5.52-9.765,9.633C235.57,303.919,242.776,310.61,247.404,309.525"/>
						<path fill="#DDE6F5" d="M246.206,299.244c0.291-0.067,0.432-0.623,0.386-0.918c-0.04-0.257-0.301-0.647-0.56-0.66
							c-0.322-0.015-0.778,0.428-0.77,0.75C245.272,298.793,245.839,299.329,246.206,299.244"/>
					</g>
				</g>
				<g enable-background="new    ">
					<defs>
						<path id="SVGID_3_" enable-background="new    " d="M181.307,457.033c-4.061-2.357-9.475-5.518-13.342-8.18
							c-6.16-4.24-14.217-10.131-20.054-14.805c-7.979-6.389-17.582-16.137-24.666-23.506c-4.659-4.847-10.42-11.77-14.254-17.292
							c-3.552-5.115-8.374-11.883-11.677-17.162c-2.853-4.56-6.316-10.851-8.828-15.608c-2.845-5.388-6.182-12.811-8.518-18.439
							c-2.101-5.062-4.383-12.014-6.261-17.162c-2.088-5.723-4.17-13.613-5.354-19.589c-2.192-11.059-4.557-25.952-5.342-37.199
							c-0.719-10.298-0.91-24.161,0.344-34.408c0.749-6.121,1.308-14.359,2.591-20.391c1.16-5.458,2.48-12.789,3.88-18.191
							c1.52-5.867,3.631-13.696,5.844-19.338c1.992-5.076,4.455-11.927,6.675-16.907c2.463-5.526,6.014-12.779,8.921-18.085
							c2.563-4.679,6.198-10.805,9.136-15.258c3.388-5.135,8.013-11.935,11.934-16.676c6.564-7.936,15.594-18.342,23.091-25.403
							c4.489-4.228,10.717-9.61,15.502-13.5c3.728-3.03,8.862-6.879,12.856-9.551c5.363-3.588,12.667-8.145,18.235-11.407
							c3.533-2.07,8.372-4.615,12.08-6.353c3.62-1.697,8.453-3.952,12.132-5.518c3.066-1.305,7.229-2.866,10.345-4.049
							c5.09-1.932,12.042-4.063,17.286-5.525c2.541-0.709,5.937-1.633,8.512-2.207c4.878-1.088,11.405-2.446,16.324-3.332
							c3.661-0.66,12.298-1.845,18.991-2.356c6.723-0.513,24.58-1.876,47.489,0.926c11.282,1.38,19.23,3.146,19.309,3.164
							c4.742,1.061,11.044,2.574,15.737,3.834c3.124,0.838,7.238,2.142,10.31,3.155c3.592,1.186,8.337,2.903,11.856,4.289
							c3.626,1.428,8.393,3.501,11.954,5.086c5.588,2.486,12.783,6.35,18.145,9.291c-33.057-18.781-72.628-26.969-115.174-21.248
							c42.546-5.721,82.117,2.467,115.174,21.248c8.148,5.001,19.069,11.665,26.577,17.583c5.178,4.081,11.94,9.71,16.83,14.131
							c3.831,3.464,8.742,8.31,12.217,12.132c4.326,4.758,9.931,11.256,13.92,16.3c3.294,4.165,7.395,9.949,10.335,14.371
							c3.412,5.132,7.622,12.202,10.594,17.601c2.61,4.742,5.663,11.289,7.996,16.173c2.621,5.486,5.446,13.107,7.458,18.845
							c1.826,5.208,3.729,12.325,5.325,17.608c1.769,5.854,3.477,13.871,4.255,19.937c0.72,5.609,1.911,13.065,2.374,18.701
							c0.512,6.232,0.865,14.573,0.876,20.826c0.02,11.396-1.468,26.583-3.117,37.859c-0.984,6.729-2.791,15.653-4.761,22.162
							c-1.597,5.275-3.573,12.361-5.425,17.552c-2.014,5.644-4.81,13.154-7.45,18.533c-2.379,4.848-5.431,11.377-8.05,16.099
							c-2.9,5.23-7.02,12.068-10.331,17.047c-9.695,14.58-19.246,25.25-23.356,29.619c-6.005,6.384-14.587,15.199-27.707,25.45
							c-3.762,2.94-8.881,6.739-12.867,9.368c-5.41,3.57-12.816,8.035-18.426,11.281c-9.184,5.314-23.529,11.377-26.556,12.53
							c-5.066,1.929-11.872,4.376-17.05,5.98c-5.011,1.552-11.777,3.354-16.889,4.533c-9.508,2.192-17.304,3.363-21.105,3.866
							c-9.304,1.231-15.632,1.657-22.827,1.945c-6.265,0.251-14.083,0.19-20.403-0.158c-5.991-0.33-12.819-0.824-22.14-2.187
							c-5-0.731-7.077-1.135-13.242-2.333c-2.412-0.469-5.6-1.227-7.991-1.793c-9.235-2.19-18.207-5.215-18.292-5.244
							c-9.002-3.097-12.844-4.496-23.81-9.374C193.864,463.838,186.596,460.103,181.307,457.033z"/>
					</defs>
					<clipPath id="SVGID_4_">
						<use xlink:href="#SVGID_3_"  overflow="visible"/>
					</clipPath>
					<g clip-path="url(#SVGID_4_)" enable-background="new    ">
						<path fill="#79869A" d="M181.307,457.033c-40.587-23.553-70.949-55.136-92.821-96.553
							c-32.625-61.777-25.452-124.17-25.131-126.796c1.425-11.649,3.583-27.206,6.47-38.581c2.83-11.151,8.318-25.536,12.519-36.246
							c4.187-10.672,17.952-35.463,29.991-50.019c6.564-7.936,15.594-18.342,23.091-25.403c1.53-1.441,15.329-14.334,28.358-23.051
							c11.073-7.408,34.114-22.824,70.078-32.852c30.002-8.366,60.726-10.711,91.317-6.969c44.75,5.473,74.575,21.832,87.311,28.818
							c-33.057-18.781-72.628-26.969-115.174-21.248c42.546-5.721,82.117,2.467,115.174,21.248
							c8.148,5.001,19.069,11.665,26.577,17.583c6.822,5.377,18.24,14.377,29.047,26.263c24.74,27.208,33.314,44.496,42.845,64.446
							c4.995,10.457,9.882,25.233,12.783,36.453c2.944,11.386,5.132,26.973,6.63,38.638c0.73,5.691,1.092,13.371,0.873,19.105
							c-0.455,11.902-1.39,27.795-3.114,39.58c-2.353,16.082-13.587,72.338-59.373,121.013
							c-33.148,35.24-73.352,58.502-119.496,69.142C268.124,500.312,204.777,470.653,181.307,457.033"/>
						<path fill="#79869A" d="M412.49,49.38c15.069,8.902,27.003,16.945,43.406,31.714l12.217,12.132
							c4.218,4.854,9.928,11.259,13.92,16.3l10.335,14.371c3.209,5.262,7.62,12.204,10.594,17.601l7.996,16.173
							c2.263,5.643,5.444,13.108,7.458,18.845l5.325,17.608c1.3,5.976,3.218,13.91,4.255,19.937l2.374,18.701
							c0.285,6.247,0.865,14.573,0.876,20.826l-0.807,19.132c-0.844,6.837-1.834,15.978-3.011,22.766l-4.06,18.122
							c-1.789,5.787-4,13.563-6.038,19.268l-6.837,16.818c-2.707,5.413-6.169,12.711-9.107,18.002l-9.274,15.144
							c-3.605,4.998-8.301,11.75-12.122,16.586l-11.235,13.033c-4.563,4.575-10.588,10.743-15.355,15.105l-12.352,10.345
							c-5.783,4.211-13.522,9.796-19.511,13.709l-11.782,6.941c-15.451,7.941-16.376,8.416-26.556,12.53l-8.502,3.172
							c-11.849,3.892-24.101,7.917-46.543,11.207l-6.095,0.739c-1.787,0.171-4.167,0.42-5.955,0.568l-5.453,0.385
							c-1.603,0.076-3.739,0.196-5.343,0.253l-5.134,0.128c-1.525,0.005-3.558,0.027-5.082,0.015l-5.076-0.095
							c-1.528-0.062-3.565-0.128-5.092-0.206l-5.256-0.329c-1.606-0.137-3.75-0.301-5.355-0.456l-5.699-0.621
							c-1.774-0.238-4.143-0.533-5.914-0.794l-6.486-1.048c-2.073-0.396-4.843-0.896-6.909-1.322l-7.754-1.744
							c-2.597-0.68-6.069-1.549-8.652-2.278l-9.64-2.966c-3.563-1.27-8.329-2.923-11.856-4.289l-11.954-5.086
							c-5.484-2.706-12.783-6.349-18.145-9.29l-13.342-8.18c-6.1-4.325-14.191-10.164-20.054-14.805l-12.702-11.253
							c-4.604-4.716-10.806-10.951-15.185-15.876l-11.033-13.669c-3.537-5.126-8.371-11.885-11.677-17.162l-8.828-15.608
							c-2.582-5.519-6.179-12.812-8.518-18.439l-6.261-17.162c-1.63-5.87-3.982-13.653-5.354-19.589l-3.401-18.371
							c-1.052-10.203-2.093-23.852-2.403-34.104l0.807-19.131c0.755-6.12,1.568-14.31,2.591-20.391l3.88-18.191
							c1.731-5.808,3.863-13.611,5.844-19.338l6.675-16.907c2.651-5.438,6.037-12.767,8.921-18.085l9.136-15.258
							c3.55-5.024,8.168-11.811,11.934-16.676l11.133-13.178c4.5-4.6,10.436-10.805,15.14-15.195l12.32-10.53
							c5.693-4.229,13.304-9.85,19.202-13.789l11.888-7.169c15.763-8.29,16.379-8.614,25.961-12.598l8.596-3.322
							c15.43-5.255,26.432-8.693,49.064-12.113l6.095-0.739c1.787-0.171,4.167-0.42,5.955-0.568l5.453-0.385
							c1.603-0.076,3.739-0.196,5.343-0.253l5.134-0.128c1.525-0.005,3.558-0.027,5.082-0.015l5.076,0.095
							c1.528,0.062,3.566,0.128,5.092,0.206l5.256,0.329c1.606,0.137,3.75,0.301,5.355,0.456l5.699,0.621
							c1.774,0.238,4.143,0.533,5.914,0.794l6.486,1.048c2.073,0.396,4.843,0.896,6.909,1.322l7.754,1.744
							c2.597,0.68,6.069,1.549,8.653,2.278l9.64,2.966c3.563,1.27,8.329,2.923,11.856,4.289l11.954,5.086
							C399.829,42.796,407.128,46.439,412.49,49.38c-33.057-18.781-72.628-26.969-115.174-21.248
							c-0.084,0.037-0.196,0.086-0.28,0.123c-202.173,57.431-130.192,280.977-6.664,341.935
							c142.155,70.15,273.507-42.251,226.688-193.983C499.862,120.47,448.444,27.116,297.316,28.133
							C339.862,22.411,379.433,30.599,412.49,49.38"/>
						<path fill="#768295" d="M412.49,49.38L412.49,49.38l43.406,31.714l12.217,12.132c4.218,4.854,9.928,11.259,13.92,16.3
							l10.335,14.371c3.209,5.262,7.62,12.204,10.594,17.601l7.996,16.173c2.263,5.643,5.444,13.108,7.458,18.845l5.325,17.608
							c1.3,5.976,3.218,13.91,4.255,19.937l2.374,18.701c0.285,6.247,0.865,14.573,0.876,20.826l-0.807,19.132
							c-0.844,6.837-1.834,15.978-3.011,22.766l-4.06,18.122c-1.789,5.787-4,13.563-6.038,19.268l-6.837,16.818
							c-2.707,5.413-6.169,12.711-9.107,18.002l-9.274,15.144c-3.605,4.998-8.301,11.75-12.122,16.586l-11.235,13.033
							c-4.563,4.575-10.588,10.743-15.355,15.105l-12.352,10.345c-5.783,4.211-13.522,9.796-19.511,13.709l-11.782,6.941
							c-15.451,7.941-16.376,8.416-26.556,12.53l-8.502,3.172c-11.849,3.892-24.101,7.917-46.543,11.207l-6.095,0.739
							c-1.787,0.171-4.167,0.42-5.955,0.568l-5.453,0.385c-1.603,0.076-3.739,0.196-5.343,0.253l-5.134,0.128
							c-1.525,0.005-3.558,0.027-5.082,0.015l-5.076-0.095c-1.528-0.062-3.565-0.128-5.092-0.206l-5.256-0.329
							c-1.606-0.137-3.75-0.301-5.355-0.456l-5.699-0.621c-1.774-0.238-4.143-0.533-5.914-0.794l-6.486-1.048
							c-2.073-0.396-4.843-0.896-6.909-1.322l-7.754-1.744c-2.597-0.68-6.069-1.549-8.652-2.278l-9.64-2.966
							c-3.563-1.27-8.329-2.923-11.856-4.289l-11.954-5.086c-5.484-2.706-12.783-6.349-18.145-9.29l-13.342-8.18
							c-6.1-4.325-14.191-10.164-20.054-14.805l-12.702-11.253c-4.604-4.716-10.806-10.951-15.185-15.876l-11.033-13.669
							c-3.537-5.126-8.371-11.885-11.677-17.162l-8.828-15.608c-2.582-5.519-6.179-12.812-8.518-18.439l-6.261-17.162
							c-1.63-5.87-3.982-13.653-5.354-19.589l-3.401-18.371c-1.052-10.203-2.093-23.852-2.403-34.104l0.807-19.131
							c0.755-6.12,1.568-14.31,2.591-20.391l3.88-18.191c1.731-5.808,3.863-13.611,5.844-19.338l6.675-16.907
							c2.651-5.438,6.037-12.767,8.921-18.085l9.136-15.258c3.55-5.024,8.168-11.811,11.934-16.676l11.133-13.178
							c4.5-4.6,10.436-10.805,15.14-15.195l12.32-10.53c5.693-4.229,13.304-9.85,19.202-13.789l11.888-7.169
							c15.763-8.29,16.379-8.614,25.961-12.598l8.596-3.322c15.43-5.255,26.432-8.693,49.064-12.113l6.095-0.739
							c1.787-0.171,4.167-0.42,5.955-0.568l5.453-0.385c1.603-0.076,3.739-0.196,5.343-0.253l5.134-0.128
							c1.525-0.005,3.558-0.027,5.082-0.015l5.076,0.095c1.528,0.062,3.566,0.128,5.092,0.206l5.256,0.329
							c1.606,0.137,3.75,0.301,5.355,0.456l5.699,0.621c1.774,0.238,4.143,0.533,5.914,0.794l6.486,1.048
							c2.073,0.396,4.843,0.896,6.909,1.322l7.754,1.744c2.597,0.68,6.069,1.549,8.653,2.278l9.64,2.966
							c3.563,1.27,8.329,2.923,11.856,4.289l11.954,5.086C399.829,42.796,407.128,46.439,412.49,49.38
							c-11.458-6.51-23.698-11.746-36.573-15.573c-0.413-0.135-0.965-0.314-1.378-0.449
							c-171.92-47.852-262.732,119.774-182.776,255.808c89.76,152.715,298.214,145.494,332.904-11.532
							c22.028-99.71-44.701-209.09-148.751-243.827C388.793,37.634,401.033,42.871,412.49,49.38"/>
						<g>
							<path fill="#727E90" d="M518.417,176.517c2.559,7.654,6.427,19.22,9.58,37.545l2.374,18.701
								c0.285,6.247,0.865,14.573,0.876,20.826l-0.807,19.132c-0.844,6.837-1.834,15.978-3.011,22.766l-4.06,18.122
								c-1.789,5.787-4,13.563-6.038,19.268l-6.837,16.818c-2.707,5.413-6.169,12.711-9.107,18.002l-9.274,15.144
								c-3.605,4.998-8.301,11.75-12.122,16.586l-11.235,13.033c-4.563,4.575-10.588,10.743-15.355,15.105l-12.352,10.345
								c-5.783,4.211-13.522,9.796-19.511,13.709l-11.782,6.941c-15.451,7.941-16.376,8.416-26.556,12.53l-8.502,3.172
								c-11.849,3.892-24.101,7.917-46.543,11.207l-6.095,0.739c-1.787,0.171-4.167,0.42-5.955,0.568l-5.453,0.385
								c-1.603,0.076-3.739,0.196-5.343,0.253l-5.134,0.128c-1.525,0.005-3.558,0.027-5.082,0.015l-5.076-0.095
								c-1.528-0.062-3.565-0.128-5.092-0.206l-5.256-0.329c-1.606-0.137-3.75-0.301-5.355-0.456l-5.699-0.621
								c-1.774-0.238-4.143-0.533-5.914-0.794l-6.486-1.048c-2.073-0.396-4.843-0.896-6.909-1.322l-7.754-1.744
								c-2.597-0.68-6.069-1.549-8.652-2.278l-9.64-2.966c-3.563-1.27-8.329-2.923-11.856-4.289l-11.954-5.086
								c-5.484-2.706-12.783-6.349-18.145-9.29l-13.342-8.18c-6.1-4.325-14.191-10.164-20.054-14.805l-12.702-11.253
								c-4.604-4.716-10.806-10.951-15.185-15.876l-11.033-13.669c-3.537-5.126-8.371-11.885-11.677-17.162l-8.828-15.608
								c-2.582-5.519-6.179-12.812-8.518-18.439l-6.261-17.162c-1.63-5.87-3.982-13.653-5.354-19.589l-3.401-18.371
								c-1.052-10.203-2.093-23.852-2.403-34.104l0.807-19.131c0.755-6.12,1.568-14.31,2.591-20.391l3.88-18.191
								c1.731-5.808,3.863-13.611,5.844-19.338l6.675-16.907c2.651-5.438,6.037-12.767,8.921-18.085l9.136-15.258
								c3.55-5.024,8.168-11.811,11.934-16.676l11.133-13.178c4.5-4.6,10.436-10.805,15.14-15.195l12.32-10.53
								c5.693-4.229,13.304-9.85,19.202-13.789l11.888-7.169c15.763-8.29,16.379-8.614,25.961-12.598l8.596-3.322
								c15.43-5.255,26.432-8.693,49.064-12.113l6.095-0.739c1.787-0.171,4.167-0.42,5.955-0.568l5.453-0.385
								c1.603-0.076,3.739-0.196,5.343-0.253l5.134-0.128c1.525-0.005,3.558-0.027,5.082-0.015l5.076,0.095
								c1.528,0.062,3.566,0.128,5.092,0.206l5.256,0.329c1.606,0.137,3.75,0.301,5.355,0.456l5.699,0.621
								c1.774,0.238,4.143,0.533,5.914,0.794l6.486,1.048c2.073,0.396,4.843,0.896,6.909,1.322l7.754,1.744
								c2.597,0.68,6.069,1.549,8.653,2.278l9.64,2.966c3.563,1.27,8.329,2.923,11.856,4.289l11.954,5.086
								c5.484,2.706,12.783,6.35,18.145,9.291c-1.352-0.768-2.715-1.519-4.089-2.251c-4.205-2.081-9.811-4.855-14.016-6.935
								c-166.66-72.439-285.286,78.039-225.822,223.054c72.043,175.689,288.708,185.504,346.272,53.511
								c26.681-61.178,11.838-119.187,0.616-148.32C516.342,170.863,517.598,174.069,518.417,176.517"/>
							<path fill="#727E90" d="M412.49,49.38c3.547,2.084,8.204,4.985,11.72,7.121c-4.222-2.529-9.852-5.9-14.075-8.428
								c-0.52-0.284-1.213-0.662-1.734-0.944C409.775,47.862,411.138,48.612,412.49,49.38"/>
						</g>
						<path fill="#6E7A8C" d="M527.997,214.062c1.655,11.151,3.219,21.683,3.25,39.527l-0.807,19.132
							c-0.844,6.837-1.834,15.978-3.011,22.766l-4.06,18.122c-1.789,5.787-4,13.563-6.038,19.268l-6.837,16.818
							c-2.707,5.413-6.169,12.711-9.107,18.002l-9.274,15.144c-3.605,4.998-8.301,11.75-12.122,16.586l-11.235,13.033
							c-4.563,4.575-10.588,10.743-15.355,15.105l-12.352,10.345c-5.783,4.211-13.522,9.796-19.511,13.709l-11.782,6.941
							c-15.451,7.941-16.376,8.416-26.556,12.53l-8.502,3.172c-11.849,3.892-24.101,7.917-46.543,11.207l-6.095,0.739
							c-1.787,0.171-4.167,0.42-5.955,0.568l-5.453,0.385c-1.603,0.076-3.739,0.196-5.343,0.253l-5.134,0.128
							c-1.525,0.005-3.558,0.027-5.082,0.015l-5.076-0.095c-1.528-0.062-3.565-0.128-5.092-0.206l-5.256-0.329
							c-1.606-0.137-3.75-0.301-5.355-0.456l-5.699-0.621c-1.774-0.238-4.143-0.533-5.914-0.794l-6.486-1.048
							c-2.073-0.396-4.843-0.896-6.909-1.322l-7.754-1.744c-2.597-0.68-6.069-1.549-8.652-2.278l-9.64-2.966
							c-3.563-1.27-8.329-2.923-11.856-4.289l-11.954-5.086c-5.484-2.706-12.783-6.349-18.145-9.29l-13.342-8.18
							c-6.1-4.325-14.191-10.164-20.054-14.805l-12.702-11.253c-4.604-4.716-10.806-10.951-15.185-15.876l-11.033-13.669
							c-3.537-5.126-8.371-11.885-11.677-17.162l-8.828-15.608c-2.582-5.519-6.179-12.812-8.518-18.439l-6.261-17.162
							c-1.63-5.87-3.982-13.653-5.354-19.589l-3.401-18.371c-1.052-10.203-2.093-23.852-2.403-34.104l0.807-19.131
							c0.755-6.12,1.568-14.31,2.591-20.391l3.88-18.191c1.731-5.808,3.863-13.611,5.844-19.338l6.675-16.907
							c2.651-5.438,6.037-12.767,8.921-18.085l9.136-15.258c3.55-5.024,8.168-11.811,11.934-16.676l11.133-13.178
							c4.5-4.6,10.436-10.805,15.14-15.195l12.32-10.53c5.693-4.229,13.304-9.85,19.202-13.789l11.888-7.169
							c15.763-8.29,16.379-8.614,25.961-12.598l8.596-3.322c15.43-5.255,26.432-8.693,49.064-12.113l6.095-0.739
							c1.787-0.171,4.167-0.42,5.955-0.568l5.453-0.385c1.603-0.076,3.739-0.196,5.343-0.253l5.134-0.128
							c1.525-0.005,3.558-0.027,5.082-0.015l5.076,0.095c1.528,0.062,3.566,0.128,5.092,0.206l5.256,0.329
							c1.606,0.137,3.75,0.301,5.355,0.456l5.699,0.621c1.774,0.238,4.143,0.533,5.914,0.794l6.486,1.048
							c2.073,0.396,4.843,0.896,6.909,1.322l7.754,1.744c2.597,0.68,6.069,1.549,8.653,2.278l9.64,2.966l5.663,1.958l-12.271-4.008
							C190.083-20.712,93.794,152.544,172.013,293.084c92.879,166.88,305.743,151.952,349.619,13.798
							c12.745-40.131,9.651-72.7,6.214-93.707C527.881,213.443,527.958,213.795,527.997,214.062"/>
						<path fill="#6B7687" d="M531.247,253.589c-0.244,12.081-0.455,22.515-3.818,41.898l-4.06,18.122
							c-1.789,5.787-4,13.563-6.038,19.268l-6.837,16.818c-2.707,5.413-6.169,12.711-9.107,18.002l-9.274,15.144
							c-3.605,4.998-8.301,11.75-12.122,16.586l-11.235,13.033c-4.563,4.575-10.588,10.743-15.355,15.105l-12.352,10.345
							c-5.783,4.211-13.522,9.796-19.511,13.709l-11.782,6.941c-15.451,7.941-16.376,8.416-26.556,12.53l-8.502,3.172
							c-11.849,3.892-24.101,7.917-46.543,11.207l-6.095,0.739c-1.787,0.171-4.167,0.42-5.955,0.568l-5.453,0.385
							c-1.603,0.076-3.739,0.196-5.343,0.253l-5.134,0.128c-1.525,0.005-3.558,0.027-5.082,0.015l-5.076-0.095
							c-1.528-0.062-3.565-0.128-5.092-0.206l-5.256-0.329c-1.606-0.137-3.75-0.301-5.355-0.456l-5.699-0.621
							c-1.774-0.238-4.143-0.533-5.914-0.794l-6.486-1.048c-2.073-0.396-4.843-0.896-6.909-1.322l-7.754-1.744
							c-2.597-0.68-6.069-1.549-8.652-2.278l-9.64-2.966c-3.563-1.27-8.329-2.923-11.856-4.289l-11.954-5.086
							c-5.484-2.706-12.783-6.349-18.145-9.29l-13.342-8.18c-6.1-4.325-14.191-10.164-20.054-14.805l-12.702-11.253
							c-4.604-4.716-10.806-10.951-15.185-15.876l-11.033-13.669c-3.537-5.126-8.371-11.885-11.677-17.162l-8.828-15.608
							c-2.582-5.519-6.179-12.812-8.518-18.439l-6.261-17.162c-1.63-5.87-3.982-13.653-5.354-19.589l-3.401-18.371
							c-1.052-10.203-2.093-23.852-2.403-34.104l0.807-19.131c0.755-6.12,1.568-14.31,2.591-20.391l3.88-18.191
							c1.731-5.808,3.863-13.611,5.844-19.338l6.675-16.907c2.651-5.438,6.037-12.767,8.921-18.085l9.136-15.258
							c3.55-5.024,8.168-11.811,11.934-16.676l11.133-13.178c4.5-4.6,10.436-10.805,15.14-15.195l12.32-10.53
							c5.693-4.229,13.304-9.85,19.202-13.789l11.888-7.169c15.763-8.29,16.379-8.614,25.961-12.598l8.596-3.322
							c15.43-5.255,26.432-8.693,49.064-12.113l6.095-0.739c1.787-0.171,4.167-0.42,5.955-0.568l5.453-0.385
							c1.603-0.076,3.739-0.196,5.343-0.253l5.134-0.128c1.525-0.005,3.558-0.027,5.082-0.015l5.076,0.095
							c1.528,0.062,3.566,0.128,5.092,0.206l5.256,0.329c1.606,0.137,3.75,0.301,5.355,0.456l5.699,0.621
							c1.774,0.238,4.143,0.533,5.914,0.794l6.486,1.048l1.766,0.318l-1.881-0.337C152.655-6.433,79.776,197.544,183.953,331.372
							C295.968,475.269,509.01,443.93,529.34,280.564c1.916-15.394,1.91-22.765,1.905-28.688
							C531.224,252.39,531.258,253.075,531.247,253.589"/>
						<path fill="#677282" d="M527.429,295.487c-1.539,7.943-3.865,19.946-10.099,37.39l-6.837,16.818
							c-2.707,5.413-6.169,12.711-9.107,18.002l-9.274,15.144c-3.605,4.998-8.301,11.75-12.122,16.586l-11.235,13.033
							c-4.563,4.575-10.588,10.743-15.355,15.105l-12.352,10.345c-5.783,4.211-13.522,9.796-19.511,13.709l-11.782,6.941
							c-15.451,7.941-16.376,8.416-26.556,12.53l-8.502,3.172c-11.849,3.892-24.101,7.917-46.543,11.207l-6.095,0.739
							c-1.787,0.171-4.167,0.42-5.955,0.568l-5.453,0.385c-1.603,0.076-3.739,0.196-5.343,0.253l-5.134,0.128
							c-1.525,0.005-3.558,0.027-5.082,0.015l-5.076-0.095c-1.528-0.062-3.565-0.128-5.092-0.206l-5.256-0.329
							c-1.606-0.137-3.75-0.301-5.355-0.456l-5.699-0.621c-1.774-0.238-4.143-0.533-5.914-0.794l-6.486-1.048
							c-2.073-0.396-4.843-0.896-6.909-1.322l-7.754-1.744c-2.597-0.68-6.069-1.549-8.652-2.278l-9.64-2.966
							c-3.563-1.27-8.329-2.923-11.856-4.289l-11.954-5.086c-5.484-2.706-12.783-6.349-18.145-9.29l-13.342-8.18
							c-6.1-4.325-14.191-10.164-20.054-14.805l-12.702-11.253c-4.604-4.716-10.806-10.951-15.185-15.876l-11.033-13.669
							c-3.537-5.126-8.371-11.885-11.677-17.162l-8.828-15.608c-2.582-5.519-6.179-12.812-8.518-18.439l-6.261-17.162
							c-1.63-5.87-3.982-13.653-5.354-19.589l-3.401-18.371c-1.052-10.203-2.093-23.852-2.403-34.104l0.807-19.131
							c0.755-6.12,1.568-14.31,2.591-20.391l3.88-18.191c1.731-5.808,3.863-13.611,5.844-19.338l6.675-16.907
							c2.651-5.438,6.037-12.767,8.921-18.085l9.136-15.258c3.55-5.024,8.168-11.811,11.934-16.676l11.133-13.178
							c4.5-4.6,10.436-10.805,15.14-15.195l12.32-10.53c5.693-4.229,13.304-9.85,19.202-13.789l11.888-7.169
							c15.763-8.29,16.379-8.614,25.961-12.598l8.596-3.322c15.43-5.255,26.432-8.693,49.064-12.113l6.095-0.739
							c1.787-0.171,4.167-0.42,5.955-0.568l5.453-0.385c1.603-0.076,3.739-0.196,5.343-0.253l5.134-0.128
							c1.525-0.005,3.558-0.027,5.082-0.015c1.291,0.022,3.011,0.052,4.302,0.074c-1.171-0.02-2.732-0.046-3.903-0.065
							C124.904,19.693,64.153,229.839,199.095,364.796c110.393,110.405,297.098,91.824,329.706-77.68
							C528.389,289.627,527.913,292.989,527.429,295.487"/>
						<path fill="#636E7E" d="M517.331,332.877c-2.566,6.906-6.862,18.465-15.943,34.82l-9.274,15.144
							c-3.605,4.998-8.301,11.75-12.122,16.586l-11.235,13.033c-4.563,4.575-10.588,10.743-15.355,15.105l-12.352,10.345
							c-5.783,4.211-13.522,9.796-19.511,13.709l-11.782,6.941c-15.451,7.941-16.376,8.416-26.556,12.53l-8.502,3.172
							c-11.849,3.892-24.101,7.917-46.543,11.207l-6.095,0.739c-1.787,0.171-4.167,0.42-5.955,0.568l-5.453,0.385
							c-1.603,0.076-3.739,0.196-5.343,0.253l-5.134,0.128c-1.525,0.005-3.558,0.027-5.082,0.015l-5.076-0.095
							c-1.528-0.062-3.565-0.128-5.092-0.206l-5.256-0.329c-1.606-0.137-3.75-0.301-5.355-0.456l-5.699-0.621
							c-1.774-0.238-4.143-0.533-5.914-0.794l-6.486-1.048c-2.073-0.396-4.843-0.896-6.909-1.322l-7.754-1.744
							c-2.597-0.68-6.069-1.549-8.652-2.278l-9.64-2.966c-3.563-1.27-8.329-2.923-11.856-4.289l-11.954-5.086
							c-5.484-2.706-12.783-6.349-18.145-9.29l-13.342-8.18c-6.1-4.325-14.191-10.164-20.054-14.805l-12.702-11.253
							c-4.604-4.716-10.806-10.951-15.185-15.876l-11.033-13.669c-3.537-5.126-8.371-11.885-11.677-17.162l-8.828-15.608
							c-2.582-5.519-6.179-12.812-8.518-18.439l-6.261-17.162c-1.63-5.87-3.982-13.653-5.354-19.589l-3.401-18.371
							c-1.052-10.203-2.093-23.852-2.403-34.104l0.807-19.131c0.755-6.12,1.568-14.31,2.591-20.391l3.88-18.191
							c1.731-5.808,3.863-13.611,5.844-19.338l6.675-16.907c2.651-5.438,6.037-12.767,8.921-18.085l9.136-15.258
							c3.55-5.024,8.168-11.811,11.934-16.676l11.133-13.178c4.5-4.6,10.436-10.805,15.14-15.195l12.32-10.53
							c5.693-4.229,13.304-9.85,19.202-13.789l11.888-7.169c15.763-8.29,16.379-8.614,25.961-12.598l8.596-3.322
							c12.602-4.292,24.506-8.346,47.749-11.932l-3.629,0.542C81.715,52.74,59.796,286.994,225.16,401.443
							c115.695,80.073,256.485,42.857,295.382-78.08C519.578,326.217,518.38,330.053,517.331,332.877"/>
						<path fill="#606A79" d="M501.387,367.697c-4.771,8.217-10.178,17.53-21.396,31.73l-11.235,13.033
							c-4.563,4.575-10.588,10.743-15.355,15.105l-12.352,10.345c-5.783,4.211-13.522,9.796-19.511,13.709l-11.782,6.941
							c-15.451,7.941-16.376,8.416-26.556,12.53l-8.502,3.172c-11.849,3.892-24.101,7.917-46.543,11.207l-6.095,0.739
							c-1.787,0.171-4.167,0.42-5.955,0.568l-5.453,0.385c-1.603,0.076-3.739,0.196-5.343,0.253l-5.134,0.128
							c-1.525,0.005-3.558,0.027-5.082,0.015l-5.076-0.095c-1.528-0.062-3.565-0.128-5.092-0.206l-5.256-0.329
							c-1.606-0.137-3.75-0.301-5.355-0.456l-5.699-0.621c-1.774-0.238-4.143-0.533-5.914-0.794l-6.486-1.048
							c-2.073-0.396-4.843-0.896-6.909-1.322l-7.754-1.744c-2.597-0.68-6.069-1.549-8.652-2.278l-9.64-2.966
							c-3.563-1.27-8.329-2.923-11.856-4.289l-11.954-5.086c-5.484-2.706-12.783-6.349-18.145-9.29l-13.342-8.18
							c-6.1-4.325-14.191-10.164-20.054-14.805l-12.702-11.253c-4.604-4.716-10.806-10.951-15.185-15.876l-11.033-13.669
							c-3.537-5.126-8.371-11.885-11.677-17.162l-8.828-15.608c-2.582-5.519-6.179-12.812-8.518-18.439l-6.261-17.162
							c-1.63-5.87-3.982-13.653-5.354-19.589l-3.401-18.371c-1.052-10.203-2.093-23.852-2.403-34.104l0.807-19.131
							c0.755-6.12,1.568-14.31,2.591-20.391l3.88-18.191c1.731-5.808,3.863-13.611,5.844-19.338l6.675-16.907
							c2.651-5.438,6.037-12.767,8.921-18.085l9.136-15.258c3.55-5.024,8.168-11.811,11.934-16.676l11.133-13.178
							c4.5-4.6,10.436-10.805,15.14-15.195l12.32-10.53c5.693-4.229,13.304-9.85,19.202-13.789l11.888-7.169
							c15.763-8.29,16.379-8.614,25.961-12.598l8.596-3.322c3.583-1.22,8.358-2.856,11.973-3.98l-0.273,0.08
							c-175.631,55.559-168.9,304.461,10.75,397.499c122.476,63.429,222.902,11.998,264.38-62.631
							C502.8,365.127,502.018,366.61,501.387,367.697"/>
						<path fill="#7D8A9E" d="M400.625,46.217c147.148,69.295,168.4,273.596,33.941,326.271
							C293.53,427.74,131.881,259.771,190.954,119.352C228.73,29.557,327.225,11.651,400.625,46.217"/>
						<path fill="#818EA3" d="M420.698,58.436c141.733,86.252,134.792,285.415-10.922,313.39
							c-153.744,29.516-283.82-161.125-193.308-283.313C268.211,18.662,358.375,20.51,420.698,58.436"/>
						<path fill="#8492A8" d="M438.923,72.655c127.675,98.229,92.208,267.503-27.867,291.057
							C277.51,389.909,136.492,224.031,222.41,92.434C260.681,33.816,356.813,11.881,438.923,72.655"/>
						<path fill="#8896AC" d="M455.173,88.787c115.91,111.149,52.563,269.64-72.324,269.594
							c-146.555-0.054-237.453-183.746-138.944-280.786C304.718,17.689,400.918,36.761,455.173,88.787"/>
						<path fill="#8C9AB1" d="M454.558,91.417c105.121,98.364,61.281,258.072-71.074,258.92
							c-142.672,0.914-227.153-174.153-131.006-271.481C302.446,28.274,393.099,33.908,454.558,91.417"/>
						<path fill="#909EB6" d="M467.913,109.446c85.919,105.383,25.396,243.779-101.187,231.381
							c-147.004-14.398-192.364-194.221-97.743-266.866C333.563,24.38,422.525,53.776,467.913,109.446"/>
						<path fill="#93A2BA" d="M466.087,112.071c85.491,105.584,14.943,243.494-112.666,220.244
							c-137.549-25.061-165.152-193.601-71.453-259.132C335.7,35.603,418.296,53.048,466.087,112.071"/>
						<path fill="#97A6BF" d="M476.081,131.984c67.27,111.133-18.106,213.263-122.551,193.457
							c-138.917-26.343-149.92-186.697-70.509-244.035C356.778,28.151,442.533,76.562,476.081,131.984"/>
						<path fill="#9BABC4" d="M472.95,134.655c60.825,102.208-21.64,201.955-119.365,183.798
							c-129.303-24.025-148.474-168.999-59.361-235.849C341.462,47.168,429.823,62.186,472.95,134.655"/>
						<path fill="#9EAFC8" d="M469.11,137.403c56.284,96.802-21.974,188.624-115.519,175.466
							c-117.216-16.487-139.95-160.422-59.704-220.234C360.907,42.681,440.035,87.397,469.11,137.403"/>
						<path fill="#A2B3CD" d="M473.895,159.247c38.001,101.177-65.743,176.729-151.995,139.165
							c-102.279-44.545-86.225-178.492,2.05-214.075C379.318,62.019,450.787,97.724,473.895,159.247"/>
						<path fill="#A6B7D2" d="M468.262,162.086c31.427,90.664-57.509,170.537-146.404,131.483
							c-96.627-42.451-80.195-166.629,4.053-201.363C385.067,67.816,449.855,108.984,468.262,162.086"/>
						<path fill="#A9BBD6" d="M461.788,164.929c29.978,89.955-64.844,157.609-139.974,124.473
							c-91.199-40.223-73.843-158.987,6.466-189.969C386.598,76.935,445.446,115.894,461.788,164.929"/>
						<path fill="#ADBFDB" d="M454.836,167.606c28.406,85.254-61.729,149.154-133.074,117.631
							c-78.755-34.797-73.526-146.726,8.35-178.752C368.664,91.405,434.763,107.362,454.836,167.606"/>
						<path fill="#B1C3E0" d="M452.051,190.885c4.424,63.66-39.904,84.184-54.47,90.929c-50.614,23.435-88.064-8.681-100.37-19.235
							c-58.168-49.884-26.117-142.899,52.761-153.116C404.665,102.378,448.974,146.607,452.051,190.885"/>
						<path fill="#B4C7E4" d="M445.35,192.834c5.875,45.8-31.929,75.672-32.318,75.919c-24.4,15.488-25.065,15.525-59.874,17.482
							c-0.178,0.01-28.002-6.379-35.897-12.097c-88.213-63.891-31.1-141.372,15.74-155.617
							C378.763,104.604,437.808,134.034,445.35,192.834"/>
						<path fill="#B8CBE9" d="M439.953,194.277c6.771,60.88-65.081,120.999-132.666,67.628
							c-69.109-54.574-16.781-140.838,46.95-140.708C381.298,121.252,434.222,142.745,439.953,194.277"/>
						<path fill="#C1D1EC" d="M434.346,195.67c1.972,20.938-1.996,59.137-50.72,79.727c-14.384,6.078-53.788,8.481-83.782-22.889
							c-42.726-44.687-16.194-127.158,56.392-125.404C400.731,128.18,431.718,167.764,434.346,195.67"/>
						<path fill="#C4D4ED" d="M428.532,197.012c7.668,79.377-83.706,97.788-124.444,55.479
							c-50.076-52.008-6.742-125.83,53.615-120.867C406.836,135.664,426.639,177.422,428.532,197.012"/>
						<path fill="#C7D6EE" d="M424.195,197.949c5.996,40.203-19.016,55.911-41.082,69.771c-3.104,1.949-30.775,11.133-61.772-5.171
							c-4.269-2.246-41.532-23.393-35.292-73.698c1.461-11.779,18.74-44.514,50.873-51.906
							C363.568,130.817,416.943,149.321,424.195,197.949"/>
						<path fill="#C9D7EE" d="M420.317,220.509c-0.034,0.139-9.211,20.718-12.019,23.997c-6.286,7.342-17.595,14.126-25.447,19.761
							c-7.495,5.379-21.163,4.148-30.357,4.914c-2.928,0.244-39.754-5.489-57.073-38.271
							c-21.596-40.875,11.227-98.024,64.996-90.481C397.763,145.668,428.553,186.831,420.317,220.509"/>
						<path fill="#CBD9EF" d="M416.085,221.285c-10.794,40.58-49.257,43.736-63.737,44.924c-9.845,0.808-22.931-5.149-31.182-10.58
							c-7.359-4.843-22.357-24.557-22.443-24.713c-20.117-36.527,6.165-94.969,63.007-86.003
							c2.342,0.369,27.425,11.805,27.562,11.902c5.242,3.727,9.768,6.946,20.861,22.532
							C420.879,194.42,416.15,221.041,416.085,221.285"/>
						<path fill="#CDDAEF" d="M411.77,222.037c-5.215,18.543-21.615,29.886-29.496,35.337c-7.562,5.23-20.915,5.127-30.08,5.868
							c-9.866,0.797-22.769-5.687-31.088-11.049c-7.207-4.645-14.79-13.858-19.077-21.285c-5.486-9.504-16.043-34.581,4.369-62.113
							c17.228-23.238,46.592-22.264,56.452-19.927c8.817,2.089,19.794,7.949,27.142,13.251c1.59,1.147,16.05,17.851,16.132,17.973
							C418.057,197.941,412.448,219.624,411.77,222.037"/>
						<path fill="#CFDCF0" d="M407.372,222.764c-0.052,0.175-6.372,18.264-25.415,31.172c-7.597,5.149-20.778,5.613-29.927,6.342
							c-0.106,0.008-22.794-6.809-31.073-12.02c-5.931-3.733-12.073-11.327-15.621-17.371c-18.18-30.972-0.612-54.441,5.161-62.153
							c6.585-8.797,19.506-14.117,29.187-17.03c6.96-2.095,17.156-0.801,24.208,0.959
							C364.49,152.812,422.53,171.711,407.372,222.764"/>
						<path fill="#D0DDF0" d="M404.592,212.134c-0.333,3.38,0.402,8.266-1.207,11.257c-4.28,7.953-11.023,18.343-17.882,24.219
							c-3.906,3.347-4.61,3.95-33.645,9.708c-0.241,0.048-29.686-4.369-42.979-26.203c-18.441-30.292-1.51-52.84,5.719-62.469
							c4.319-5.753,25.46-13.676,25.647-13.721c7.207-1.741,17.494-0.314,24.666,1.565c16.269,4.262,32.762,24.816,32.905,25.017
							C406.419,193.569,405.49,203.007,404.592,212.134"/>
						<path fill="#D2DEF1" d="M399.419,223.984c-3.359,8.104-10.768,18.202-18.168,22.911c-1.383,0.88-26.534,7.231-29.573,7.468
							c-0.241,0.019-29.21-6.437-39.72-23.562c-18.225-29.695-1.156-51.982,5.27-60.372c0.69-0.901,21.839-11.898,23.572-12.257
							c7.405-1.533,17.824,0.163,25.112,2.181C380.583,164.414,412.064,193.473,399.419,223.984"/>
						<path fill="#D3DFF1" d="M395.392,224.556c-2.797,6.435-8.597,14.624-14.583,18.285c-1.546,0.946-28.126,8.714-29.32,8.569
							c-1.698-0.206-30.765-14.721-30.913-14.85c-5.757-5.025-9.126-15.4-11.906-22.519c-6.036-15.46,3.482-34.235,8.871-38.845
							c4.377-3.743,20.392-13.001,23.801-13.757c7.527-1.67,18.145,0.646,25.547,2.805c2.289,0.668,23.085,18.318,23.15,18.453
							c2.759,5.838,7.36,13.506,8.179,19.911C399.059,209.194,398.038,218.468,395.392,224.556"/>
						<path fill="#D4E0F2" d="M391.306,225.108c-2.138,4.709-6.285,10.888-10.771,13.461c-8.009,4.593-20.202,11.231-29.272,9.501
							c-10.154-1.936-23.268-8.339-30.829-15.387c-4.76-4.437-10.412-22.927-10.432-23.078c-0.029-0.22-0.038-24.024,7.84-29.598
							c4.793-3.391,20.691-14.516,24.029-15.275c7.711-1.754,18.874,0.603,26.072,3.875c6.369,2.895,13.861,9.118,18.143,14.65
							c3.976,5.137,6.104,13.875,8.586,19.878C397.223,209.297,394.064,219.036,391.306,225.108"/>
						<path fill="#D6E1F2" d="M387.194,225.635c-1.491,3.184-4.229,7.501-7.342,9.135c-8.093,4.248-19.899,11.788-28.831,9.851
							c-9.165-1.988-21.012-7.732-27.902-14.094c-5.381-4.968-10.066-20.843-10.083-20.976c-0.019-0.148-0.052-17.427,5.104-24.698
							c5.115-7.213,15.627-14.857,24.27-16.726c7.937-1.716,19.046,2.031,26.599,5.013c4.706,1.858,9.968,6.659,13.077,10.65
							c4.017,5.159,8.205,13.36,8.998,19.85C391.895,210.293,390.034,219.567,387.194,225.635"/>
						<path fill="#D7E1F3" d="M383.061,226.136c-0.773,1.603-2.111,3.866-3.724,4.617c-8.271,3.853-19.465,10.991-28.572,10.426
							c-7.268-0.451-15.832-6.558-21.705-10.864c-3.617-2.652-6.912-7.93-9.194-11.791c-8.427-14.26-0.247-29.751-0.149-29.881
							c5.17-6.875,14.854-14.962,23.267-16.759c8.12-1.733,19.228,3.058,27.055,5.828c2.934,1.039,6.168,4.083,8.017,6.587
							c3.911,5.295,8.606,13.296,9.388,19.832C388.243,210.815,385.983,220.073,383.061,226.136"/>
						<path fill="#D8E2F3" d="M378.909,226.612c-5.981,6.931-19.269,11.61-28.411,11.135c-5.184-0.269-11.612-4.252-15.501-7.689
							c-5.636-4.981-12.155-12.97-15.5-19.707c-1.508-3.037,6.402-21.784,6.506-21.925c3.854-5.244,11.166-11.465,17.544-12.759
							c8.317-1.686,19.363,4.222,27.493,6.654c1.108,0.331,2.308,1.509,2.968,2.459c3.781,5.447,9.005,13.236,9.776,19.821
							C384.57,211.318,381.914,220.553,378.909,226.612"/>
						<path fill="#D9E3F3" d="M377.43,217.348c-7.31,13.766-27.033,16.983-27.209,16.974c-3.103-0.168-7.071-2.401-9.296-4.57
							c-5.647-5.504-15.23-12.719-16.438-20.511c-1.033-6.665,4.083-15.457,7.794-21.09c2.419-3.672,7.493-7.863,11.815-8.676
							c7.059-1.329,16.435,3.538,23.167,6.043c1.986,0.739,3.978,2.989,5.379,4.58C378.124,196.328,381.323,210.017,377.43,217.348"
							/>
						<path fill="#DAE4F4" d="M375.904,207.865c-4.044,7.732-13.686,15.125-20.213,20.915c-1.378,1.222-3.92,2.217-5.76,2.126
							c-4.633-0.231-19.717-21.677-19.748-21.887c-1.005-6.763,5.013-15.239,8.362-21.2c1.113-1.981,3.852-4.088,6.084-4.512
							c3.654-0.694,9.047,0.922,11.973,3.219c5.749,4.515,13.474,10.579,18.377,16C376.07,203.731,376.658,206.424,375.904,207.865"
							/>
						<path fill="#DBE5F4" d="M349.41,225.068c-6.35-0.352-12.645-10.019-13.536-16.316c-0.027-0.193,8.584-21.46,9.278-21.59
							c0.215-0.041,0.535,0.055,0.703,0.195c6.749,5.629,21.867,10.215,22.303,18.992
							C368.552,214.286,357.346,225.507,349.41,225.068"/>
						<path fill="#DCE5F4" d="M348.617,216.861c-3.294-0.155-6.57-5.16-7.063-8.42c-0.561-3.708,1.191-10.667,4.842-11.524
							c4.617-1.084,11.812,5.586,11.971,10.327C358.503,211.349,352.721,217.054,348.617,216.861"/>
						<path fill="#DDE6F5" d="M347.762,208.721c-0.251-0.012-0.503-0.39-0.541-0.638c-0.044-0.285,0.092-0.822,0.373-0.887
							c0.355-0.082,0.903,0.436,0.912,0.8C348.514,208.307,348.073,208.736,347.762,208.721"/>
					</g>
				</g>
			</g>
		</g>
	</g>
	<linearGradient id="SVGID_5_" gradientUnits="userSpaceOnUse" x1="120.6235" y1="340.1113" x2="490.9993" y2="157.2383">
		<stop  offset="0" style="stop-color:#D3D4D6"/>
		<stop  offset="1" style="stop-color:#555658"/>
	</linearGradient>
	<path fill="url(#SVGID_5_)" d="M219.635,27.612c126.423-42.367,263.28,24.632,305.076,149.351
		c41.796,124.719-27.053,260.654-153.476,303.021C244.81,522.352,107.953,455.353,66.157,330.634S93.211,69.979,219.635,27.612z
		 M366.801,466.757c119.03-39.889,183.853-167.875,144.501-285.301S343.098,0.95,224.068,40.839S40.214,208.715,79.566,326.14
		S247.771,506.647,366.801,466.757z"/>
</g>
<g id="Hourglass">
	
		<ellipse transform="matrix(-0.9482 0.3178 -0.3178 -0.9482 650.2715 389.3149)" opacity="0.1" fill="#BBBDBF" cx="293.387" cy="247.688" rx="214.599" ry="97.407"/>
	<path fill="#231F20" d="M306.608,250.376c-24.329-56.428,58.851-95.379,39.121-170.512c-5.943-22.633-21.002-34.568-28.618-39.33
		c-30.075-2.759-60.623,0.774-89.628,10.495c-27.912,9.354-52.88,23.895-74.112,42.159c-2.478,7.014-8.814,29.062-1.055,53.794
		c20.924,66.688,113.806,47.457,133.886,110.232c17.388,54.36-43.233,71.328-45.134,151.34
		c-0.417,17.544,12.518,40.088,37.412,58.886c28.544,1.991,57.419-1.661,84.907-10.873c28.213-9.455,53.223-24.116,74.3-42.527
		c3.054-9.042,12.623-43.564-7.171-73.692C401.581,296.309,327.751,299.413,306.608,250.376z"/>
	<linearGradient id="SVGID_6_" gradientUnits="userSpaceOnUse" x1="171.4254" y1="147.1068" x2="329.8595" y2="147.1068">
		<stop  offset="0" style="stop-color:#84B2DF"/>
		<stop  offset="1" style="stop-color:#565DA8"/>
	</linearGradient>
	<path fill="url(#SVGID_6_)" d="M298.544,252.756l-5.218,1.749c-0.128-0.421-0.232-0.83-0.369-1.257
		c-13.54-41.993-57.425-45.895-88.311-67.859c18.915-9.343,39.122-17.679,59.635-24.554c20.425-6.845,41.481-12.351,62.121-16.288
		c-11.15,39.946-44.485,68.199-28.397,107.009C298.175,251.966,298.367,252.354,298.544,252.756z M172.256,78.63
		c-0.767,10.071-2.788,45.719,4.754,69.485c4.046,12.75,10.54,22.229,18.462,29.758c20.064-10.73,41.978-20.254,65.131-28.013
		c22.951-7.691,45.976-13.264,68.271-16.797c1.706-11.279,1.371-23.531-2.379-37.187c-6.91-25.162-29.75-50.431-35.167-56.169
		c-21.579,0.587-43.107,4.371-63.845,11.321C207.461,57.739,188.958,67.125,172.256,78.63z"/>
	<g>
		<linearGradient id="SVGID_7_" gradientUnits="userSpaceOnUse" x1="77.9323" y1="253.6481" x2="448.3081" y2="70.7751">
			<stop  offset="0" style="stop-color:#D3D4D6"/>
			<stop  offset="1" style="stop-color:#555658"/>
		</linearGradient>
		<path fill="url(#SVGID_7_)" d="M328.874,133.064c-22.295,3.533-45.32,9.105-68.271,16.797
			c-23.153,7.759-45.066,17.283-65.131,28.013c-4.587,2.453-9.068,4.973-13.453,7.546c3.37,2.235,6.896,4.279,10.53,6.186
			c3.967-2.115,7.998-4.191,12.097-6.216c18.915-9.343,39.122-17.679,59.635-24.554c20.425-6.845,41.481-12.351,62.121-16.288
			c4.608-0.879,9.191-1.671,13.746-2.391c1.549-3.657,2.951-7.392,4.155-11.218C339.205,131.54,334.061,132.242,328.874,133.064z"/>
		<linearGradient id="SVGID_8_" gradientUnits="userSpaceOnUse" x1="112.9446" y1="324.5591" x2="483.3204" y2="141.6861">
			<stop  offset="0" style="stop-color:#D3D4D6"/>
			<stop  offset="1" style="stop-color:#555658"/>
		</linearGradient>
		<path fill="url(#SVGID_8_)" d="M249.725,362.962c0.647-1.713,1.318-3.39,2.011-5.031c0.008-0.001,0.015-0.002,0.023-0.003
			c-29.68,3.983-58.171,4.546-81.989,2.05c-41.938-4.396-68.863-21.885-76.472-44.591c-7.609-22.706,4.076-50.692,34.897-79.471
			c19.503-18.21,46.334-35.648,76.451-50.526c-3.216-2.287-6.288-4.773-9.174-7.516c-27.084,14.483-50.792,31.166-69.574,48.705
			c-33.627,31.4-46.916,64.3-38.087,90.646s38.892,43.498,84.649,48.294c23.333,2.446,49.411,1.547,76.783-2.486"/>
		<g>
			<linearGradient id="SVGID_9_" gradientUnits="userSpaceOnUse" x1="121.7729" y1="342.4394" x2="492.1488" y2="159.5663">
				<stop  offset="0" style="stop-color:#D3D4D6"/>
				<stop  offset="1" style="stop-color:#555658"/>
			</linearGradient>
			<path fill="url(#SVGID_9_)" d="M399.208,312.55c23.826-13.128,44.797-27.919,61.689-43.692
				c33.627-31.4,47.284-63.202,38.454-89.549c-8.829-26.347-39.259-44.595-85.016-49.392c-25.723-2.696-54.906-1.695-85.461,3.147
				c-0.596,3.94-1.434,7.764-2.472,11.483c33.095-6.313,65.117-8.583,91.725-5.794c41.938,4.396,68.128,19.69,75.737,42.396
				s-3.34,52.887-34.161,81.666c-17.333,16.185-40.136,32.736-65.911,47.337c0.003-0.001,0.005-0.003,0.008-0.004
				c1.672,0.862,3.324,1.745,4.954,2.653"/>
			<linearGradient id="SVGID_10_" gradientUnits="userSpaceOnUse" x1="382.6771" y1="320.9814" x2="404.1691" y2="310.3697">
				<stop  offset="0" style="stop-color:#D3D4D6"/>
				<stop  offset="1" style="stop-color:#555658"/>
			</linearGradient>
			<path fill="url(#SVGID_10_)" d="M393.426,315.674c-0.001,0-0.002,0.001-0.003,0.001
				C393.424,315.675,393.425,315.675,393.426,315.674z"/>
		</g>
	</g>
	<linearGradient id="SVGID_11_" gradientUnits="userSpaceOnUse" x1="176.4454" y1="351.7057" x2="348.7788" y2="363.3724">
		<stop  offset="0" style="stop-color:#84B2DF"/>
		<stop  offset="1" style="stop-color:#565DA8"/>
	</linearGradient>
	<path fill="url(#SVGID_11_)" d="M416.758,430.184c1.167-8.973,7.079-61.791-11.008-92.02c-4.713-7.877-10.819-14.231-17.747-19.668
		c-1.301-1.021-2.634-2.008-3.99-2.968c-29.256-20.726-70.291-28.26-85.47-62.771l-5.218,1.749
		c12.208,40.242-19.274,57.742-30.303,101.761c-0.383,1.53-0.742,3.092-1.073,4.688c-1.868,9.001-2.477,19.08-2.504,30.629
		c-0.07,29.988,24.263,57.198,45.961,76.069c19.609-1.062,39.12-4.764,57.978-11.084
		C382.768,450.072,400.636,441.119,416.758,430.184z"/>
</g>
<g id="logo">
	<path fill="none" d="M298.005,251.556c14.74,35.556,56.411,43.003,86.008,63.971c29.786-15.833,56.192-34.507,75.689-52.712
		c30.821-28.779,41.77-58.96,34.161-81.666c-7.609-22.706-33.799-38-75.737-42.396c-26.608-2.789-58.63-0.519-91.725,5.794
		C315.251,184.493,281.917,212.746,298.005,251.556z"/>
	<path fill="none" d="M292.957,253.248c-13.54-41.993-57.425-45.895-88.311-67.859c-30.118,14.877-56.949,32.316-76.451,50.526
		c-30.821,28.779-42.506,56.765-34.897,79.471c7.609,22.706,34.534,40.195,76.472,44.591c26.818,2.811,59.558,1.754,93.253-3.711
		C274.168,311.786,306.226,294.398,292.957,253.248z"/>
</g>
<g id="white_shading">
	<linearGradient id="SVGID_12_" gradientUnits="userSpaceOnUse" x1="339.8955" y1="458.0835" x2="337.2164" y2="263.6551">
		<stop  offset="0" style="stop-color:#FFFFFF;stop-opacity:0"/>
		<stop  offset="0.5616" style="stop-color:#FFFFFF"/>
		<stop  offset="1" style="stop-color:#FFFFFF;stop-opacity:0"/>
	</linearGradient>
	<path opacity="0.7" fill="url(#SVGID_12_)" d="M416.758,430.184c1.167-8.973,7.079-61.791-11.008-92.02
		c-4.713-7.877-10.819-14.231-17.747-19.668c-1.301-1.021-2.634-2.008-3.99-2.968c-29.256-20.726-70.291-28.26-85.47-62.771
		l-5.218,1.749c12.208,40.242-19.274,57.742-30.303,101.761c-0.383,1.53-0.742,3.092-1.073,4.688
		c-1.868,9.001-2.504,19.08-2.504,30.629c0,30.385,24.267,57.23,45.959,76.069c19.61-1.061,39.122-4.764,57.98-11.084
		C382.768,450.072,400.636,441.119,416.758,430.184z"/>
	
		<linearGradient id="SVGID_13_" gradientUnits="userSpaceOnUse" x1="94.7261" y1="451.3751" x2="98.1983" y2="526.2219" gradientTransform="matrix(-0.9482 0.3178 -0.3178 -0.9482 490.6516 534.1699)">
		<stop  offset="0" style="stop-color:#FFFFFF"/>
		<stop  offset="1" style="stop-color:#FFFFFF;stop-opacity:0"/>
	</linearGradient>
	<path opacity="0.7" fill="url(#SVGID_13_)" d="M260.603,149.861c22.951-7.691,45.976-13.264,68.271-16.797
		c1.705-11.279,1.371-23.531-2.379-37.186c-7.859-28.618-36.334-57.385-36.334-57.385l-28.159-0.248l-34.886,11.691L188.02,65.589
		l-15.535,10.298c0,0-4.334,44.314,4.524,72.228c4.046,12.75,10.54,22.229,18.462,29.758
		C215.537,167.144,237.45,157.62,260.603,149.861z"/>
	
		<linearGradient id="SVGID_14_" gradientUnits="userSpaceOnUse" x1="238.6922" y1="160.8936" x2="292.7053" y2="226.481" gradientTransform="matrix(0.9774 0.2112 -0.2112 0.9774 65.8133 -43.4803)">
		<stop  offset="0.0013" style="stop-color:#838B91;stop-opacity:0.5"/>
		<stop  offset="1" style="stop-color:#FFFFFF;stop-opacity:0"/>
	</linearGradient>
	<path opacity="0.9" fill="url(#SVGID_14_)" d="M298.005,251.556c-16.089-38.81,17.246-67.064,28.397-107.009
		c-20.64,3.937-41.696,9.444-62.121,16.288c-20.513,6.874-40.72,15.21-59.635,24.554c30.886,21.964,74.771,25.865,88.311,67.859
		c0.137,0.426,0.241,0.835,0.369,1.257l5.218-1.749C298.367,252.354,298.175,251.966,298.005,251.556z"/>
</g>
<g id="Text">
	<g id="outlines">
		<path fill="#231F20" d="M19.193,567.672c-3.867-4.517-5.8-11.591-5.8-21.225c0-9.667,2.101-16.733,6.3-21.2
			c4.2-4.467,10.45-6.7,18.75-6.7c3.9,0,7.517,0.468,10.851,1.4v5.3c-3.534-0.933-6.968-1.4-10.3-1.4
			c-4.434,0-8.067,0.726-10.9,2.176c-2.834,1.449-4.95,3.816-6.35,7.1c-1.4,3.283-2.101,7.658-2.101,13.125
			c0,5.567,0.65,10.025,1.95,13.375s3.232,5.775,5.8,7.275c2.566,1.5,5.8,2.25,9.7,2.25c3.533,0,7.6-0.783,12.2-2.351v5.351
			c-4.268,1.532-8.601,2.3-13,2.3C28.76,574.447,23.061,572.189,19.193,567.672z"/>
		<path fill="#231F20" d="M59.242,492.697h6v32.85h0.4c2.232-2.333,4.816-4.083,7.75-5.25c2.933-1.166,6.066-1.75,9.399-1.75
			c5.267,0,9.408,1.468,12.425,4.4c3.017,2.934,4.525,7.667,4.525,14.2v36.35h-6v-36.2c0-4.732-1.059-8.116-3.175-10.149
			c-2.117-2.033-5.159-3.051-9.125-3.051c-2.968,0-5.909,0.643-8.825,1.926c-2.917,1.283-5.375,3.258-7.375,5.925v41.55h-6V492.697z
			"/>
		<path fill="#231F20" d="M114.992,519.347h5.1l0.5,7.301h0.45c1.899-2.467,4.291-4.375,7.175-5.726
			c2.883-1.35,5.892-2.024,9.025-2.024c1.633,0,3.05,0.117,4.25,0.35v5.7c-1.167-0.2-2.667-0.3-4.5-0.3
			c-2.968,0-5.926,0.717-8.875,2.149c-2.95,1.434-5.325,3.483-7.125,6.15v40.55h-6V519.347z"/>
		<path fill="#231F20" d="M151.443,567.622c-3.899-4.55-5.85-11.607-5.85-21.175c0-9.5,1.95-16.525,5.85-21.075
			c3.9-4.55,9.351-6.825,16.351-6.825c7.032,0,12.491,2.259,16.375,6.775c3.883,4.517,5.825,11.559,5.825,21.125
			c0,9.5-1.959,16.542-5.875,21.125c-3.918,4.583-9.359,6.875-16.325,6.875C160.794,574.447,155.344,572.172,151.443,567.622z
			 M179.693,564.047c2.733-3.5,4.101-9.316,4.101-17.45c0-8.266-1.367-14.157-4.101-17.675c-2.733-3.517-6.699-5.274-11.899-5.274
			s-9.167,1.742-11.9,5.225c-2.733,3.483-4.1,9.292-4.1,17.425c0,8.268,1.366,14.167,4.1,17.7s6.7,5.3,11.9,5.3
			S176.96,567.547,179.693,564.047z"/>
		<path fill="#231F20" d="M202.943,519.347h5.1l0.5,6.301h0.45c2.267-2.301,4.883-4.059,7.85-5.275s6.117-1.825,9.45-1.825
			c5.366,0,9.566,1.476,12.601,4.425c3.032,2.95,4.55,7.692,4.55,14.226v36.3h-6v-36.1c0-4.767-1.059-8.191-3.175-10.275
			c-2.117-2.083-5.159-3.125-9.125-3.125c-2.9,0-5.817,0.643-8.75,1.925c-2.934,1.284-5.418,3.292-7.45,6.025v41.55h-6V519.347z"/>
		<path fill="#231F20" d="M261.592,567.622c-3.899-4.55-5.85-11.607-5.85-21.175c0-9.5,1.95-16.525,5.85-21.075
			c3.9-4.55,9.351-6.825,16.351-6.825c7.032,0,12.491,2.259,16.375,6.775c3.883,4.517,5.825,11.559,5.825,21.125
			c0,9.5-1.959,16.542-5.875,21.125c-3.918,4.583-9.359,6.875-16.325,6.875C270.942,574.447,265.492,572.172,261.592,567.622z
			 M289.842,564.047c2.733-3.5,4.101-9.316,4.101-17.45c0-8.266-1.367-14.157-4.101-17.675c-2.733-3.517-6.699-5.274-11.899-5.274
			s-9.167,1.742-11.9,5.225c-2.733,3.483-4.1,9.292-4.1,17.425c0,8.268,1.366,14.167,4.1,17.7s6.7,5.3,11.9,5.3
			S287.108,567.547,289.842,564.047z"/>
		<path fill="#231F20" d="M310.842,572.297v-5.149c2.633,0.8,5.1,1.375,7.399,1.725c2.301,0.35,4.65,0.525,7.051,0.525
			c9.566,0,14.35-3.367,14.35-10.101c0-2.732-0.709-4.825-2.125-6.274c-1.417-1.45-3.792-2.559-7.125-3.325l-6.95-1.45
			c-4.767-1.033-8.217-2.732-10.35-5.1c-2.134-2.367-3.2-5.483-3.2-9.351c0-3,0.75-5.642,2.25-7.925s3.783-4.075,6.85-5.375
			s6.851-1.95,11.351-1.95c4.399,0,8.5,0.518,12.3,1.55v5.15c-2.167-0.6-4.2-1.025-6.1-1.275c-1.9-0.25-3.934-0.375-6.101-0.375
			c-5.067,0-8.774,0.909-11.125,2.726c-2.35,1.817-3.524,4.242-3.524,7.274c0,2.5,0.683,4.518,2.05,6.051
			c1.366,1.533,3.649,2.649,6.85,3.35l6.95,1.45c4.933,1.067,8.475,2.767,10.625,5.1c2.15,2.334,3.225,5.468,3.225,9.4
			c0,4.867-1.733,8.667-5.199,11.399c-3.468,2.734-8.484,4.101-15.051,4.101C320.074,574.447,315.274,573.729,310.842,572.297z"/>
		<path fill="#231F20" d="M357.141,519.347h5.2l0.449,6.051h0.45c1.7-2.101,3.851-3.767,6.45-5s5.467-1.851,8.6-1.851
			c6.333,0,11.434,2.134,15.301,6.4c3.866,4.267,5.8,11.083,5.8,20.45c0,19.333-8.934,29-26.8,29c-2.867,0-6.018-0.25-9.45-0.75
			v21.85h-6V519.347z M388.115,563.722c3.383-3.716,5.075-9.625,5.075-17.725s-1.408-13.816-4.225-17.15
			c-2.817-3.332-6.742-5-11.775-5c-2.768,0-5.384,0.617-7.85,1.851c-2.468,1.233-4.534,3.1-6.2,5.6v36.95
			c1.3,0.334,2.808,0.592,4.524,0.775s3.408,0.274,5.075,0.274C379.606,569.297,384.731,567.439,388.115,563.722z"/>
		<path fill="#231F20" d="M412.239,492.697h6v32.85h0.399c2.233-2.333,4.816-4.083,7.75-5.25c2.934-1.166,6.066-1.75,9.4-1.75
			c5.267,0,9.408,1.468,12.425,4.4c3.017,2.934,4.525,7.667,4.525,14.2v36.35h-6v-36.2c0-4.732-1.059-8.116-3.175-10.149
			c-2.117-2.033-5.159-3.051-9.125-3.051c-2.968,0-5.909,0.643-8.825,1.926c-2.917,1.283-5.375,3.258-7.375,5.925v41.55h-6V492.697z
			"/>
		<path fill="#231F20" d="M506.339,548.597h-35.149c0.133,5,0.925,9.018,2.375,12.051c1.449,3.033,3.55,5.233,6.3,6.6
			c2.75,1.367,6.225,2.05,10.425,2.05c3.933,0,8.416-0.767,13.45-2.3v5.15c-4.9,1.532-9.601,2.3-14.101,2.3
			c-8.167,0-14.309-2.233-18.425-6.7c-4.117-4.467-6.175-11.583-6.175-21.35c0-9.367,1.85-16.351,5.55-20.95
			c3.7-4.601,8.883-6.9,15.55-6.9c6.533,0,11.533,2.284,15,6.851s5.2,11.6,5.2,21.1V548.597z M475.239,528.122
			c-2.567,3.25-3.917,8.559-4.05,15.925h29.25c-0.134-7.399-1.409-12.716-3.825-15.95c-2.417-3.232-5.925-4.85-10.525-4.85
			C481.422,523.247,477.806,524.872,475.239,528.122z"/>
		<path fill="#231F20" d="M518.488,519.347h5.1l0.5,7.301h0.45c1.9-2.467,4.291-4.375,7.175-5.726
			c2.883-1.35,5.892-2.024,9.025-2.024c1.633,0,3.05,0.117,4.25,0.35v5.7c-1.167-0.2-2.667-0.3-4.5-0.3
			c-2.968,0-5.925,0.717-8.875,2.149c-2.95,1.434-5.325,3.483-7.125,6.15v40.55h-6V519.347z"/>
		<path fill="#231F20" d="M590.389,548.597h-35.149c0.133,5,0.925,9.018,2.375,12.051c1.449,3.033,3.55,5.233,6.3,6.6
			c2.75,1.367,6.225,2.05,10.425,2.05c3.933,0,8.416-0.767,13.45-2.3v5.15c-4.9,1.532-9.601,2.3-14.101,2.3
			c-8.167,0-14.309-2.233-18.425-6.7c-4.117-4.467-6.175-11.583-6.175-21.35c0-9.367,1.85-16.351,5.55-20.95
			c3.7-4.601,8.883-6.9,15.55-6.9c6.533,0,11.533,2.284,15,6.851s5.2,11.6,5.2,21.1V548.597z M559.289,528.122
			c-2.567,3.25-3.917,8.559-4.05,15.925h29.25c-0.134-7.399-1.409-12.716-3.825-15.95c-2.417-3.232-5.925-4.85-10.525-4.85
			C565.472,523.247,561.855,524.872,559.289,528.122z"/>
	</g>
	<rect x="-175.995" y="492.698" fill="none" width="954.972" height="168.643"/>
	
		<text id="chronosphere_x5F_text" transform="matrix(1 0 0 1 6.895 573.4972)" display="none" fill="#231F20" font-family="'EncodeSans-Light'" font-size="100">chronosphere</text>
</g>
</svg>
